<svg xmlns="http://www.w3.org/2000/svg" width="40" height="60" viewBox="0 0 40 60">
  <g id="Groupe_3" data-name="Groupe 3" transform="translate(-707.547 -154.871)">
    <path id="bookmark" d="M0,60V5.625C0,2.518,2.239,0,5,0H35c2.761,0,5,2.518,5,5.625V60L20,46.875Z" transform="translate(707.547 154.871)" fill="#7b563f"/>
    <path id="star" d="M41.512,7.366,35.464,6.45l-2.7-5.7a1.3,1.3,0,0,0-2.376,0l-2.7,5.7-6.048.916A1.392,1.392,0,0,0,20.9,9.715l4.376,4.431-1.035,6.26a1.335,1.335,0,0,0,1.921,1.45l5.41-2.956,5.41,2.956a1.336,1.336,0,0,0,1.921-1.45l-1.035-6.26,4.376-4.431a1.392,1.392,0,0,0-.733-2.349Z" transform="translate(695.975 160.346)" fill="#e6cfb1"/>
  </g>
</svg>
