<svg xmlns="http://www.w3.org/2000/svg" width="180" height="180" viewBox="0 0 180 180">
  <g id="Groupe_24" data-name="Groupe 24" transform="translate(-658.81 -816.169)">
    <path id="circle" d="M98,8a90,90,0,1,0,90,90A89.985,89.985,0,0,0,98,8Zm0,162.581A72.581,72.581,0,1,1,170.581,98,72.561,72.561,0,0,1,98,170.581Z" transform="translate(650.81 808.169)" fill="#7b563f"/>
    <path id="info-circle" d="M48,8A40,40,0,1,0,88,48,40.006,40.006,0,0,0,48,8Zm0,17.742a6.774,6.774,0,1,1-6.774,6.774A6.774,6.774,0,0,1,48,25.742ZM57.032,66.71A1.936,1.936,0,0,1,55.1,68.645H40.9a1.936,1.936,0,0,1-1.935-1.935V62.839A1.936,1.936,0,0,1,40.9,60.9h1.935V50.581H40.9a1.936,1.936,0,0,1-1.935-1.935V44.774A1.936,1.936,0,0,1,40.9,42.839H51.226a1.936,1.936,0,0,1,1.935,1.935V60.9H55.1a1.936,1.936,0,0,1,1.935,1.935Z" transform="translate(700.81 858.169)" fill="#7b563f" stroke="#000" stroke-width="2"/>
  </g>
</svg>
