<svg xmlns="http://www.w3.org/2000/svg" width="737.73" height="64.184" viewBox="0 0 737.73 64.184">
  <g id="Groupe_8" data-name="Groupe 8" transform="translate(319.099 -500.294)">
    <path id="path134" d="M36.692,102.75l333.387-3.427,2.425,6.243Z" transform="translate(-340.139 445.985)" fill="none" stroke="#7b563f" stroke-width="1"/>
    <path id="path139" d="M4.277,90.6c6.579-1.331,14.338-1.375,17.712-5.013,4.865-8.2-3.524-10.413-7.992-5.124,1.753-7.954,11.842-5.967,12.744.557.4,6.77-3.338,8.723-6.912,9.58,3.358,1.83,6.413,4.02,6.588,9.358.27,7.678-11.178,7.584-12.312,1.225,6.242,5.065,12.709,1.246,7.3-5.459C19.338,93.574,10.872,91.8,4.277,90.6Z" transform="translate(-323.277 458.133)" fill="none" stroke="#7b563f" stroke-width="1"/>
    <path id="path1348" d="M160.763,85.345c6.225,7.648,26.513,8.35,42.919,7.562,10.393-1.739,22.56-3.78,34.06-20.481a44.956,44.956,0,0,0,14.968,11.816l21.383-.158c-18.566-.208-30.973-6.838-37.8-18.984-6.452,18.116-19.539,22.166-32.762,24.656-23.872,3.423-33.908-.195-42.767-4.411Z" transform="translate(-404.683 463.271)" fill="none" stroke="#7b563f" stroke-width="1"/>
    <path id="path6645" d="M662.6,72.89c-16.682-7.242-33.643-17.258-63.6-16.513,1.881-6.278,9.049-10.962,19.965-8.886C633.6,50.383,648.58,62.719,662.6,72.89Z" transform="translate(-632.657 472.418)" fill="none" stroke="#7b563f" stroke-width="1"/>
    <path id="path7083" d="M516.16,90.667C554.3,75.6,573.546,77.75,619.5,89.579" transform="translate(-589.564 455.729)" fill="none" stroke="#7b563f" stroke-width="1"/>
    <path id="path7445" d="M582.34,52.456C586.6,32.249,601.492,32.1,606.964,32.181c15.635.907,28.03,8.131,39.853,20.832,9.77,11.351,18.415,17.484,26.46,20.832l.108,6.684c-20.075,4.251-39.554,5.757-55.081-9.358,10.46,9.29,25.9,10.871,45.577,5.9l-11.34-8.466" transform="translate(-623.992 479.903)" fill="none" stroke="#7b563f" stroke-width="1"/>
    <path id="path8305" d="M584.591,78.317a20.577,20.577,0,0,0,9.4,11.586l11.88-.223c8.441-5.394,7.724-11.057,8.208-13.145l-2.376,1c-.784,4.862-4.049,8.054-11.448,8.466-7.441.217-9.067-4.664-10.908-9.358Z" transform="translate(-625.163 457.495)" fill="none" stroke="#7b563f" stroke-width="1"/>
    <path id="path8975" d="M753.716,54.476c-9.024-9.754-4.5-18.608,4.212-27.182l.108-16.264C739.257,31.97,741.482,45.087,753.716,54.476Z" transform="translate(-708.21 490.583)" fill="none" stroke="#7b563f" stroke-width="1"/>
    <path id="path9260" d="M749.667,51.306a17.036,17.036,0,0,1-2.841-4.537.994.994,0,0,0-.229-.461,1.6,1.6,0,0,1-.244-.716,1.463,1.463,0,0,0-.265-.72c-.124-.093-.187-.36-.218-.914a3.981,3.981,0,0,0-.243-1.213c-.179-.386-.2-.736-.2-3.328,0-2.624.019-2.938.207-3.342a3.668,3.668,0,0,0,.241-1.31,2.1,2.1,0,0,1,.248-1.17,1.72,1.72,0,0,0,.239-.836,1.082,1.082,0,0,1,.215-.709,1.438,1.438,0,0,0,.263-.695,1.8,1.8,0,0,1,.212-.683,1.393,1.393,0,0,0,.212-.5c.111-.522.287-.947.391-.947.052,0,.1-.088.1-.195a1.526,1.526,0,0,1,.214-.557c.118-.2.178-.363.135-.364s-.031-.039.029-.084a2.911,2.911,0,0,0,.369-.639c.375-.8,2.162-3.9,2.4-4.168a.822.822,0,0,0,.2-.312,1.156,1.156,0,0,1,.257-.375,1.8,1.8,0,0,0,.331-.528c.041-.133.141-.243.222-.243s.178-.1.216-.223a.675.675,0,0,1,.277-.338c.115-.063.209-.157.209-.209a2.108,2.108,0,0,1,.39-.525,3.524,3.524,0,0,0,.542-.794c.083-.2.218-.362.3-.362s.179-.125.217-.278.14-.279.228-.279.16-.046.16-.1a.992.992,0,0,1,.21-.362l.54-.665a1.515,1.515,0,0,0,.33-.572.277.277,0,0,1,.216-.226.3.3,0,0,0,.216-.291c0-.135.07-.233.164-.233s.22-.125.287-.278.185-.279.26-.279.169-.1.207-.226a1.59,1.59,0,0,1,.331-.5.909.909,0,0,0,.262-.429c0-.16.31-.292.691-.3.2,0,.2.187.15,7.237l-.055,7.239L756.7,30.425a36.363,36.363,0,0,0-5.02,6.457,8.824,8.824,0,0,1-.606.945,1.461,1.461,0,0,0-.269.557c-.033.169-.128.308-.211.308s-.18.148-.215.329a1.112,1.112,0,0,1-.265.517,1.226,1.226,0,0,0-.27.591,1.065,1.065,0,0,1-.232.536,1.716,1.716,0,0,0-.242.835,3.919,3.919,0,0,1-.271,1.077c-.167.326-.191.68-.187,2.681A7.938,7.938,0,0,0,749.105,48a5,5,0,0,1,.266,1.14,1.74,1.74,0,0,0,.241.836,1.1,1.1,0,0,1,.225.568,1.5,1.5,0,0,0,.283.676.824.824,0,0,1,.22.407.476.476,0,0,0,.117.287c.072.074.078.147.015.187s-.419-.322-.806-.8Z" transform="translate(-708.831 488.932)" fill="#7b563f" stroke="#7b563f" stroke-width="0.17"/>
    <path id="path10593" d="M752.228,53.2c-6.914-5.7-9.565-12.366-8.027-20.183.82-4.166,3.16-9.188,6.623-14.213a88.731,88.731,0,0,1,6.531-8.179l.664-.724-.029,8.422-.029,8.422-1.652,1.758c-4.01,4.268-6.188,7.77-7.171,11.531a9.6,9.6,0,0,0-.241,3.008,9.909,9.909,0,0,0,.8,4.645,20.762,20.762,0,0,0,3.475,5.523c.405.477.435.55.288.7s-.276.077-1.235-.713Zm-1.553-2.536a13.7,13.7,0,0,1-1.2-13.188c.489-1.17.424-1.357-.088-.253-.192.414-.438.929-.546,1.146a3.722,3.722,0,0,0-.276.947,5.368,5.368,0,0,1-.253,1,20.107,20.107,0,0,0,.008,5.57,8.1,8.1,0,0,1,.255,1.058,3.423,3.423,0,0,0,.277.89,1.851,1.851,0,0,1,.2.531,3.281,3.281,0,0,0,.333.752,1.848,1.848,0,0,1,.282.75,11.663,11.663,0,0,0,1.727,1.979c.014,0-.31-.531-.719-1.18Zm-4.85-6.359c-.127-.226-.158-.154-.054.127.037.1.09.158.118.129S745.887,44.42,745.824,44.308Zm-.445-1.185a.8.8,0,0,0-.16-.362c-.147-.2-.151-.185-.043.146.122.378.2.465.2.216Zm-.542-2.09c-.066-.272-.169-.706-.229-.965a26.086,26.086,0,0,1-.065-3.231,11.9,11.9,0,0,1,.23-3.25,2.758,2.758,0,0,0,.152-1c-.029-.456-.061-.371-.291.769A25.766,25.766,0,0,0,744.4,39.6c.179,1.189.477,2.426.52,2.157a2.52,2.52,0,0,0-.083-.724Zm5.335-5.067c.037-.1.019-.144-.042-.1a.238.238,0,0,0-.107.173C750.023,36.195,750.1,36.159,750.172,35.966Zm-5.151-4.193c-.035-.089-.06-.062-.065.067s.021.183.057.146a.23.23,0,0,0,.009-.214Zm.4-1.151.065-.443-.146.39a6.165,6.165,0,0,0-.217.724l-.071.334.153-.281a2.646,2.646,0,0,0,.217-.724Zm.438-1.335c.067-.333.067-.333-.1.041-.191.428-.212.552-.067.4A1.169,1.169,0,0,0,745.862,29.288Zm.485-1.337c0-.061-.047-.036-.1.056a.683.683,0,0,0-.1.278c0,.061.047.036.1-.056A.682.682,0,0,0,746.348,27.951Zm5.349-9.213c.3-.373.641-.845.764-1.05a9.49,9.49,0,0,1,.725-.959,14.236,14.236,0,0,0,1.392-1.8,4.5,4.5,0,0,1,.869-1.079,8.73,8.73,0,0,0,1.026-1.328c.183-.271.183-.274-.016-.111-.327.268-3.171,3.827-4.272,5.347-.555.766-1.055,1.455-1.113,1.532s-.062.136-.01.133a3.581,3.581,0,0,0,.634-.684Zm5.886-7.075V11.14l-.439.44-.438.44.412.068c.226.037.424.075.439.084a2.3,2.3,0,0,0,.027-.508Z" transform="translate(-707.973 491.151)" fill="#7b563f" stroke="#7b563f" stroke-width="0.17"/>
    <path id="path10632" d="M752.374,53.334a37.674,37.674,0,0,1-5.194-5.444,18.684,18.684,0,0,1-3.279-8.158,23.124,23.124,0,0,1,.224-6.649q1.9-9.357,11.6-20.729c1.061-1.243,2.25-2.562,2.31-2.562.026,0,.024,3.822,0,8.494l-.052,8.494-1.637,1.735c-4.193,4.442-6.706,8.636-7.306,12.2a20.461,20.461,0,0,0,.219,5.509,20.557,20.557,0,0,0,3.623,6.506c.671.83.81,1.162.527,1.26a3.9,3.9,0,0,1-1.026-.651ZM750.362,50.2a13.659,13.659,0,0,1-1.388-11.559l.434-1.281c.042-.123-.073.063-.253.412a10.788,10.788,0,0,0-.622,1.727,10.2,10.2,0,0,0-.3,3.487,11.064,11.064,0,0,0,.239,3.343,13.468,13.468,0,0,0,.948,2.68,2.889,2.889,0,0,1,.266.694,8.009,8.009,0,0,0,1.241,1.527,11.131,11.131,0,0,0-.566-1.029Zm-5.887-14.037c-.019-.628-.035-.114-.035,1.142s.016,1.77.035,1.142.019-1.656,0-2.284Zm.315-3.231c-.03-.077-.054-.014-.054.139s.025.216.054.139A.443.443,0,0,0,744.791,32.935Zm6.962-14.426c.134-.177.131-.181-.041-.042a.693.693,0,0,0-.189.195C751.523,18.754,751.612,18.695,751.753,18.509Zm.324-.446c.134-.177.131-.181-.041-.042a.691.691,0,0,0-.189.195c0,.092.089.033.23-.153Zm.324-.446c.134-.177.13-.181-.041-.042a.692.692,0,0,0-.189.195C752.171,17.862,752.26,17.8,752.4,17.618Zm1.195-1.56c.892-1.121.989-1.253.923-1.253a11.442,11.442,0,0,0-.881,1.058,11,11,0,0,0-.777,1.058A9.024,9.024,0,0,0,753.6,16.058Zm2.267-2.841c.331-.479.177-.36-.287.223-.232.291-.31.429-.173.306a3.62,3.62,0,0,0,.46-.529Zm1.6-1.551v-.354l-.275.267c-.251.244-.258.274-.081.346C757.431,12.057,757.464,12.034,757.464,11.666Z" transform="translate(-707.961 491.208)" fill="#7b563f" stroke="#7b563f" stroke-width="0.17"/>
    <path id="path10671" d="M752.533,53.459c-.4-.308-1.174-1-1.728-1.529-3.825-3.68-5.8-6.947-6.7-11.071a14.445,14.445,0,0,1-.245-3.83,16.229,16.229,0,0,1,.246-3.843c1.137-5.537,4.192-11.455,9.28-17.977a58.306,58.306,0,0,1,4.682-5.417c.112,0,.129,9.781.025,14.148l-.071,2.952-1.472,1.56a37.415,37.415,0,0,0-3.736,4.455c-2.182,3.035-3.456,5.871-3.721,8.283a18.193,18.193,0,0,0,.374,5.337,20.213,20.213,0,0,0,3.262,5.849c.877,1.153,1.043,1.546.68,1.613a2.7,2.7,0,0,1-.882-.53Zm-2.526-3.941a16.824,16.824,0,0,1-1.46-3.91c-.158-.686-.191-.763-.146-.334a14.25,14.25,0,0,0,1.8,4.985,2.518,2.518,0,0,0,.359.418,10.856,10.856,0,0,0-.553-1.158Zm-1.486-9.334c-.034-.089-.06-.062-.065.067s.021.183.057.146a.23.23,0,0,0,.009-.214Zm.108-.446c-.034-.089-.06-.062-.065.067s.021.183.057.146A.23.23,0,0,0,748.629,39.738Zm.108-.446c-.035-.089-.06-.062-.065.067s.021.183.057.146A.23.23,0,0,0,748.737,39.292Zm8.717-27.56c.1-.273.079-.309-.1-.158s-.215.334-.066.334C757.345,11.909,757.418,11.829,757.454,11.732Z" transform="translate(-708.018 491.208)" fill="#7b563f" stroke="#7b563f" stroke-width="0.17"/>
    <path id="path10710" d="M752.8,53.725c-.249-.17-.94-.751-1.538-1.292-3.9-3.53-6.174-7.137-7.166-11.37a14.958,14.958,0,0,1-.238-3.961,18,18,0,0,1,.2-3.9c1.052-4.971,3.684-10.383,7.758-15.956,2.354-3.22,6.1-7.624,6.3-7.414.086.089.07,15.681-.017,16.483l-.069.633L756.5,28.6A36.2,36.2,0,0,0,751.8,34.54a25.356,25.356,0,0,0-2.151,4.4,13.825,13.825,0,0,0-.4,6.071c.3,2.263,1.114,3.995,3.37,7.145a8.2,8.2,0,0,1,1.008,1.643c0,.326-.281.3-.83-.075ZM749.825,49.3a2.779,2.779,0,0,0-.384-.68,6.209,6.209,0,0,0,.677,1.4A3.141,3.141,0,0,0,749.825,49.3Zm-.5-1.137c-.127-.226-.158-.154-.054.127.037.1.09.158.118.129S749.384,48.279,749.321,48.167Z" transform="translate(-708.014 491.191)" fill="#7b563f" stroke="#7b563f" stroke-width="0.17"/>
    <path id="path10749" d="M603.935,83.232a43.319,43.319,0,0,1-20.714-6.812,6.891,6.891,0,0,1-.967-.7,9.257,9.257,0,0,1,1.219.557,38.549,38.549,0,0,0,12.9,3.689,77.02,77.02,0,0,0,9.936.174,79.723,79.723,0,0,0,8.262-1.012,70.073,70.073,0,0,0,8.042-1.776,14.286,14.286,0,0,0-1.269-.982c-.7-.506-2.474-1.834-3.953-2.952L614.7,71.384,613.552,68.4c-1.1-2.845-1.172-3-1.578-3.278-.234-.162-3.026-2.207-6.2-4.544-6.091-4.479-8.11-5.932-11.016-7.929-9.472-6.508-17.159-10.4-24.06-12.177-6.081-1.567-11.5-1.229-15.753.982a12.594,12.594,0,0,0-6.295,6.995l-.31.877,4.12.011a95.364,95.364,0,0,1,9.9.439c12.926,1.271,23.378,4.212,37.693,10.606,5.473,2.445,9.066,4.095,8.981,4.125-.046.017-1.2-.249-2.561-.591-14.127-3.539-24.006-5.593-32.627-6.787-1.45-.2-2.66-.389-2.689-.42a18.341,18.341,0,0,1,.34-2.566c.05-.165.02-.179-.192-.091l-1.437.6-1.187.5-.148.624c-.174.735.091.69-2.662.461a114.036,114.036,0,0,0-15.768-.175c-.891.063-1.854.127-2.141.142l-.521.028-.251-.613c-.138-.337-.326-.8-.417-1.026l-.166-.413-2.591.9-2.591.9.2.486.2.486-.346.06-1.7.288a152.955,152.955,0,0,0-29.187,8.5l-1.593.62-3.483.065a18.988,18.988,0,0,1-3.321-.042c.274-.181,38.668-16.094,38.714-16.047a3.113,3.113,0,0,1-.148.768c-.339,1.276-.35,1.416-.112,1.48.162.044.227-.013.276-.239.128-.587.278-1.2.433-1.758.146-.53.194-.586.667-.771,1.21-.475,1.409-.6,1.35-.83-.052-.2-.117-.216-.8-.151l-.743.071.2-.6a27.146,27.146,0,0,1,4.73-8.6,20.489,20.489,0,0,1,12.724-6.816,37.989,37.989,0,0,1,5.886-.336c11.914.786,22,5.04,32.023,13.5a107.132,107.132,0,0,1,10.192,10.2,94.439,94.439,0,0,0,8.963,8.651,61.311,61.311,0,0,0,14.228,9l.551.235.079,3.142c.043,1.728.056,3.166.028,3.195-.071.073-4.027.846-6.729,1.314a110.623,110.623,0,0,1-11.255,1.4c-1.932.134-7.725.126-9.523-.013Z" transform="translate(-582.297 479.691)" fill="#7b563f" stroke="#7b563f" stroke-width="0.17"/>
    <path id="path10788" d="M586.206,105.452c-7.9-.076-15.749-.146-17.442-.156s-17.221-.138-34.507-.285-36.24-.3-42.121-.342-10.754-.109-10.829-.15.206-.187.648-.332,2.388-.922,4.349-1.734l3.564-1.476,5.238-.069c2.881-.038,13.688-.154,24.016-.257,15.752-.158,18.815-.164,19.008-.038.127.083.644.405,1.149.717l.918.567,5.989-.1,5.989-.1,1.031-.7,1.031-.7,22.41-.231c12.326-.127,22.9-.23,23.5-.23h1.087l.938,2.424c.516,1.333.938,2.46.938,2.5a12.279,12.279,0,0,1-1.482-1.031c-1.3-.976-1.5-1.091-1.641-.947-.087.09-.137.182-.111.205s.776.584,1.667,1.246,1.666,1.246,1.723,1.3a4.031,4.031,0,0,1-1.3.075c-.769-.01-7.862-.08-15.763-.155Z" transform="translate(-571.427 445.728)" fill="#7b563f" stroke="#7b563f" stroke-width="0.17"/>
    <path id="path10827" d="M592.143,90.251a19.971,19.971,0,0,1-5.444-7,7.127,7.127,0,0,1-.524-1.244c.041-.042,2.019-.311,4.175-.567l.454-.054.609,1.25a11.824,11.824,0,0,0,2.237,3.407,8.393,8.393,0,0,0,5.835,2.576,15.464,15.464,0,0,0,9.937-2.573,9.078,9.078,0,0,0,2.783-3.97c.1-.363.187-.473.36-.471a9.114,9.114,0,0,1,1.65.26,10.838,10.838,0,0,1-.772,2.655,15.212,15.212,0,0,1-.971,1.824,20.791,20.791,0,0,1-3.354,3.726l-.564.448-6.684.055c-3.676.03-7.228.078-7.893.105l-1.209.05Z" transform="translate(-625.985 455.045)" fill="#7b563f" stroke="#7b563f" stroke-width="0.17"/>
    <path id="path10866" d="M641.97,79.254a5.6,5.6,0,0,1-.849-.147,1.512,1.512,0,0,1,.106-.517c.141-.453.185-.49,1.011-.831a4.741,4.741,0,0,1,.9-.318,8.431,8.431,0,0,1-.293,1.931C642.81,79.365,642.415,79.311,641.97,79.254Z" transform="translate(-654.567 457.038)" fill="#7b563f" stroke="#7b563f" stroke-width="0.17"/>
    <path id="path10905" d="M585.363,79.2c-.071-.16-.109-.309-.084-.331s1-.368,2.17-.768l2.126-.729.282.727a2.451,2.451,0,0,1,.224.786,15.307,15.307,0,0,1-1.706.252c-.906.106-1.926.229-2.266.274-.595.078-.623.07-.747-.211Z" transform="translate(-625.516 457.075)" fill="#7b563f" stroke="#7b563f" stroke-width="0.17"/>
    <path id="path10944" d="M601.891,101.453l-.686-.435.794-.063c.764-.061,13.7-.181,13.7-.127a7.251,7.251,0,0,1-.621.46l-.621.434-3.51.071c-1.931.039-4.6.077-5.94.083l-2.43.013Z" transform="translate(-633.805 445.231)" fill="#7b563f" stroke="#7b563f" stroke-width="0.17"/>
    <path id="path11022" d="M390.426,66.553a28.581,28.581,0,0,1-4.811-3.838A19.386,19.386,0,0,1,379.407,50a6.344,6.344,0,0,1,.113-2.6,17.19,17.19,0,0,1,2.335-5.866c3.98-6.189,12.3-9.327,20.031-7.557a17.459,17.459,0,0,1,1.782.494c1.242.483,4.471,3.344,5.749,5.1a14.194,14.194,0,0,1,1.854,3.614c1.1,3.736-.16,7.812-3.5,11.287a14.24,14.24,0,0,1-3.76,2.933c-1.085.541-1.371.632-1.369.434,0-.18.728-3,.789-3.06.024-.025.439-.242.923-.484a8.676,8.676,0,0,0,4.627-4.793,8.423,8.423,0,0,0,.149-4.273,11.468,11.468,0,0,0-6.813-7.887,16.02,16.02,0,0,0-4.637-.478,14.508,14.508,0,0,0-11.251,6.222,9.444,9.444,0,0,0-1.377,3.364,13.992,13.992,0,0,0,.954,5.984c2.588,6.412,10.546,11.562,20.684,13.385a25.728,25.728,0,0,0,8.748.216c8.181-.794,17.09-3.02,35.263-8.81,15.451-4.923,20.27-6.272,25.42-7.112,1.03-.168,1.3-.156,1.087.049-.055.053-3.333,1.437-7.283,3.074s-8.786,3.643-10.746,4.457L446.2,63.077l-9.415,3.908-21.1.224c-11.6.123-21.733.224-22.513.225h-1.417Z" transform="translate(-518.383 479.24)" fill="#7b563f" stroke="#7b563f" stroke-width="0.17"/>
    <path id="path11061" d="M421.588,105.562l-8.046-.076-1.4-.527a39.366,39.366,0,0,1-4.9-2.338c.022-.022,8.035-.119,17.807-.215s19.394-.2,21.384-.242a26.826,26.826,0,0,1,3.51.033c-.191.177-5.561,2.348-7.232,2.924l-1.616.557-5.728-.02c-3.15-.011-9.349-.054-13.774-.1Z" transform="translate(-532.9 444.561)" fill="#7b563f" stroke="#7b563f" stroke-width="0.17"/>
    <path id="path11100" d="M433.719,111.653a49.9,49.9,0,0,1-8.532-1.436l-.756-.214,5.994.006c3.3,0,8.643.036,11.88.074l5.886.068-1.242.313a48.929,48.929,0,0,1-5.832,1.027,55.676,55.676,0,0,1-7.4.162Z" transform="translate(-541.846 440.59)" fill="#7b563f" stroke="#7b563f" stroke-width="0.17"/>
    <path id="path11139" d="M341.776,105.805c-1.247-.014-8.829-.078-16.848-.142-30.458-.245-31.287-.255-31.137-.4.077-.073.654-.492,1.281-.931l1.14-.8,12.493-.128c10.182-.1,12.549-.1,12.792.016.555.267,21.737.109,21.737-.162a7.243,7.243,0,0,1,2.822-.278h1.04l1.894,1.006c1.042.553,2.4,1.2,3.01,1.445l1.116.438-4.536-.022c-2.495-.012-5.557-.033-6.8-.047Z" transform="translate(-473.879 444.135)" fill="#7b563f" stroke="#7b563f" stroke-width="0.17"/>
    <path id="path11178" d="M288.4,84.283a32.1,32.1,0,0,0,5.819-4.6c3.468-3.456,5.85-7.259,8.159-13.025l.175-.436.593.975c5.133,8.433,13.547,14.028,24.649,16.39.994.212,1.917.385,2.051.385s.243.048.243.105-2.265.121-5.805.146l-5.805.041-.964-.493a45.191,45.191,0,0,1-12.72-10.123l-.866-1.031-.76,1.082a53.124,53.124,0,0,1-9.075,9.952l-1.057.878-2.507,0-2.507,0Z" transform="translate(-470.882 462.707)" fill="#7b563f" stroke="#7b563f" stroke-width="0.17"/>
    <path id="path11217" d="M281.211,105.9c-1.435-.039-2.069-.092-1.89-.157.148-.054.926-.427,1.728-.831l1.458-.733,2.052-.04c1.129-.022,2.319-.024,2.646,0l.594.035-1.342.919-1.342.919-.872-.024-3.032-.084Z" transform="translate(-466.342 443.559)" fill="#7b563f" stroke="#7b563f" stroke-width="0.17"/>
    <path id="path11256" d="M191.417,114.426c-13.32-.252-22.643-2.281-27.414-5.965a3.818,3.818,0,0,1-.746-.658,11.668,11.668,0,0,1,1.548.605,52.177,52.177,0,0,0,16.353,4.217,62.949,62.949,0,0,0,6.7.2,97.107,97.107,0,0,0,14.943-1,73.663,73.663,0,0,0,13.644-3.231l1.032-.385h1.958a20.563,20.563,0,0,1,4.312.23,43.48,43.48,0,0,1-4.622,2.251,54.461,54.461,0,0,1-11.772,3.15,27.853,27.853,0,0,1-4.7.5C199.069,114.479,195.729,114.507,191.417,114.426Z" transform="translate(-405.979 441.703)" fill="#7b563f" stroke="#7b563f" stroke-width="0.17"/>
    <path id="path11295" d="M23.74,84.279c-2.72-.793-4.315-2.4-4.741-4.771-.041-.23-.051-.418-.022-.418a7.353,7.353,0,0,1,.759.551,12.756,12.756,0,0,0,1.707,1.06c2.893,1.47,5.636,1.2,6.594-.651A4.359,4.359,0,0,0,27.984,77a6.7,6.7,0,0,0-2.764-3.514c-2-1.084-4.5-1.837-10.8-3.256a.282.282,0,0,1-.243-.317V69.65l1.215.266c6.155,1.349,10.046,2.742,11.278,4.036a10.254,10.254,0,0,1,1.838,3.12,4.694,4.694,0,0,1-.005,3.076c-.846,1.869-3.295,2.513-5.977,1.571a12.222,12.222,0,0,1-2.426-1.2c-.427-.311-.446-.264-.14.358,1.629,3.317,7.086,4.174,9.814,1.542,1.435-1.385,1.845-3.283,1.3-6.02-.583-2.923-2.336-5.018-5.817-6.956l-.963-.536.963-.246c3.144-.8,5.134-2.458,5.921-4.928a10.444,10.444,0,0,0,.379-4.723,6.7,6.7,0,0,0-6.014-5.061A5.672,5.672,0,0,0,19.856,57.5l-.166.413.674-.524A7.337,7.337,0,0,1,24.722,55.8a3.958,3.958,0,0,1,3.264,1.3c1.135,1.331,1.116,3.379-.057,5.927a4.759,4.759,0,0,1-1.756,2.143c-1.95,1.365-4.757,2.231-9.562,2.95-1.069.16-2.053.315-2.187.345-.2.044-.243.006-.243-.214,0-.251.057-.276.891-.4,6.242-.9,9.3-1.833,11.288-3.452a7.392,7.392,0,0,0,1.969-4.713A2.918,2.918,0,0,0,26.667,56.7c-1.843-.936-4.639-.257-6.612,1.607-.653.616-.8.705-.947.591s-.166-.18,0-.747a6.367,6.367,0,0,1,4.472-4.523,7.842,7.842,0,0,1,3.85.221,7.557,7.557,0,0,1,3.887,3.146,6.2,6.2,0,0,1,.808,3.47c.006,3.817-1.356,6.3-4.254,7.767l-.995.5H28.33c.8,0,7.922-.073,15.822-.163s19.419-.215,25.6-.279l21.762-.227c5.792-.06,17.966-.183,27.054-.272s18.663-.193,21.276-.23l4.752-.068.864-.51a33.358,33.358,0,0,0,3.834-2.685,39.266,39.266,0,0,0,4.858-5.035,42.27,42.27,0,0,0,5.736-10.886c.1-.276.133-.244.735.776a34.1,34.1,0,0,0,8.5,9.732,40.944,40.944,0,0,0,18.833,7.667,36.506,36.506,0,0,0,8.4.42l4.459-.077-1.273-.857A27.693,27.693,0,0,1,194.6,61.8,19.684,19.684,0,0,1,191.4,57.53c-1.875-3.36-2.837-7.751-2.319-10.579a17.926,17.926,0,0,1,2.478-6.269c4.361-6.678,13.661-9.8,21.766-7.3a13.612,13.612,0,0,1,4.849,3.521c4.905,5,5.3,10.547,1.143,16.077-1.869,2.487-5.221,4.935-6.768,4.944a2.337,2.337,0,0,1-.51-.025c0-.015.233-.922.513-2.015l.51-1.988.648-.28a9.434,9.434,0,0,0,4.509-3.89,6.266,6.266,0,0,0,.7-3.45c-.186-3.942-3.574-8.209-7.26-9.143a22.209,22.209,0,0,0-6.069-.008c-5.673,1.263-10.077,5.587-10.077,9.893a14.448,14.448,0,0,0,.652,3.891c1.759,5.3,6.967,9.724,14.56,12.365a40.315,40.315,0,0,0,8.387,1.947,17.968,17.968,0,0,0,3.4.054,94.148,94.148,0,0,0,19.426-3.4c1.269-.333,2.35-.605,2.4-.605s.1,2.124.1,4.9v4.9h-7.96l-1.231.33a45.106,45.106,0,0,1-20.023.952,51.875,51.875,0,0,1-5.238-1.272c-.875-.283-2.063-.307-23.22-.459-8.346-.06-20.623-.162-27.282-.226l-12.108-.117-.576.35a42.38,42.38,0,0,1-7.339,3.318,61.376,61.376,0,0,1-9.99,2.4,32.173,32.173,0,0,1-6.048.511c-19.412.612-32.573-1.684-37.967-6.626l-.543-.5H81.706c-1.765,0-10.986-.073-20.49-.161s-21.314-.194-26.244-.236l-8.964-.076,1.158.79a9.37,9.37,0,0,1,4.586,7.993,5.708,5.708,0,0,1-.543,3.27,5.478,5.478,0,0,1-3.19,2.77,5.568,5.568,0,0,1-2.227.315,7.374,7.374,0,0,1-2.052-.118Zm93.691-10.141A82.886,82.886,0,0,0,135.952,71c1.128-.339,2.116-.655,2.2-.7s-4.245-.117-9.611-.158-15.661-.127-22.879-.193-14.289-.1-15.714-.083l-2.592.035,1.3.544c5.507,2.313,10.555,3.4,18.09,3.9,1.361.09,8.642-.052,10.692-.209Zm23.534-4.92c.689-.283,1.52-.657,1.847-.83l.594-.315-.378,0c-.208,0-12.115.12-26.46.272s-27.395.281-29,.287l-2.916.011.648.31.648.31,25.7.221c14.137.121,26.234.228,26.882.237a4.184,4.184,0,0,0,2.43-.5Zm-56.582-.131a.579.579,0,0,1,.135-.344c.11-.116.024-.132-.459-.081-.327.034-5.065.1-10.53.136s-11.394.109-13.176.151c-3.116.075-3.008.079,2.808.112,6.972.04,20.487.172,20.925.2C84.307,69.282,84.382,69.236,84.382,69.087Zm88.369-1.877,1.914-.07-.942-.556a43.843,43.843,0,0,1-10.105-7.9,19.359,19.359,0,0,0-2.222-2.133c-.043.052-.485.646-.982,1.32a56.531,56.531,0,0,1-7.666,8.462c-.564.483-1.075.926-1.134.984-.114.111,17.643.023,21.138-.1Z" transform="translate(-328.429 479.726)" fill="#7b563f" stroke="#7b563f" stroke-width="0.17"/>
    <path id="path11334" d="M205.859,105.928c-43.711-.376-43-.367-43.523-.591-.457-.2-.47-.213-.216-.286.148-.043,1.9-.082,3.887-.088,3.335-.01,25.071-.222,45.469-.444,4.663-.051,8.5-.078,8.516-.06a14.857,14.857,0,0,1-3.6,1.512C216.153,106,211.414,105.976,205.859,105.928Z" transform="translate(-405.303 443.393)" fill="#7b563f" stroke="#7b563f" stroke-width="0.17"/>
    <path id="path11410" d="M119.648,106l-6.534-.057,4.806-.083c2.643-.045,7.78-.114,11.414-.151l6.608-.069-.06.235-.06.235L131,106.081c-2.651-.015-7.761-.052-11.355-.084Z" transform="translate(-379.895 442.795)" fill="#7b563f" stroke="#7b563f" stroke-width="0.17"/>
    <path id="path11449" d="M21.123,105.814a5.963,5.963,0,0,1-4.645-2.893,1.591,1.591,0,0,1-.23-.548,4.023,4.023,0,0,1,.577.329,8.54,8.54,0,0,0,4.507,1.38,3.455,3.455,0,0,0,2.976-1.14,2.894,2.894,0,0,0,.839-2.679,3.834,3.834,0,0,0-.545-2.036,8.031,8.031,0,0,0-1.995-2.782c-1.671-1.141-4.719-2.194-9.752-3.369-1.2-.28-2.28-.51-2.4-.51a32.44,32.44,0,0,1-3.185-.628c.037-.038,2.47-.4,4.017-.594a41.614,41.614,0,0,0,9.221-2.085c2.605-1.151,3.567-2.171,4.4-4.658a6.013,6.013,0,0,0,.078-3.64,4.062,4.062,0,0,0-1.748-1.839,3.506,3.506,0,0,0-1.8-.347A6.485,6.485,0,0,0,17,79.145a7,7,0,0,1-.753.5c-.177,0,.754-1.487,1.255-2a5.4,5.4,0,0,1,4.026-1.672,6.511,6.511,0,0,1,4.789,2.068c1.587,1.631,2.079,3.686,1.541,6.438a7.22,7.22,0,0,1-2.294,4.2,10.513,10.513,0,0,1-3.72,1.844c-.611.165-1.073.338-1.026.384s.564.363,1.149.7a12.566,12.566,0,0,1,4.157,3.549,9.766,9.766,0,0,1,1.527,5.262,4.905,4.905,0,0,1-1.523,3.9,6.066,6.066,0,0,1-5,1.486Z" transform="translate(-324.834 457.78)" fill="#7b563f" stroke="#7b563f" stroke-width="0.17"/>
    <path id="path11521" d="M163.058,106.359c.272,0,.558,0,.824-.014a2.941,2.941,0,0,1,.419-.042c.813.067-.24-.015.472.07.045.005.09,0,.135,0a.731.731,0,0,1,.2.056.374.374,0,0,0,.054.028.3.3,0,0,0,.067,0s.013,0,.013,0a1.769,1.769,0,0,0-.3-.042c-.117-.017-.107-.043-.229-.056a1.844,1.844,0,0,0-.351,0c-.431.038-.108.039-.5.084-.045.005-.09,0-.135,0a4.192,4.192,0,0,1-.446,0c-.054,0-.108-.011-.162-.014-.027,0-.054,0-.081,0,0,0-.013,0-.013,0s.009,0,.013,0l.162.014.176.014c.305.021.613.018.918.028a4.021,4.021,0,0,1,.5,0c.045.023.09.063.135.084.175.08-.016-.044.108.042" transform="translate(-405.862 442.46)" fill="none" stroke="#7b563f" stroke-width="1"/>
    <path id="path11523" d="M165.6,105.772l-4.536-.273" transform="translate(-404.838 442.865)" fill="none" stroke="#7b563f" stroke-width="1"/>
    <path id="path11525" d="M158.922,106.642a.476.476,0,0,0,.094.028c.09.007.18,0,.27,0,.05,0,.1.009.149.014.184.009.369.028.553.028a1.134,1.134,0,0,0,.176-.028" transform="translate(-403.725 442.288)" fill="none" stroke="#7b563f" stroke-width="1"/>
    <path id="path11527" d="M642.882,76.535c-1.418.094-1.347.015-2,.836a5.152,5.152,0,0,1-.7.724c-.014.012-.041-.013-.054,0s-.088.46-.162.613" transform="translate(-653.969 457.495)" fill="none" stroke="#7b563f" stroke-width="1"/>
    <path id="path11529" d="M582.888,67.738c-.323.013-.651-.045-.972,0-1.548.218-.012.087-.54.223a2.977,2.977,0,0,0-.7.223,5.549,5.549,0,0,0-.594.446c-.07.048-.216-.012-.216.111" transform="translate(-622.704 461.948)" fill="none" stroke="#7b563f" stroke-width="1"/>
    <path id="path11531" d="M725.266,97.012c-.032-.1-.786-.254-.81-.279s.015-.045,0-.056a1.93,1.93,0,0,0-.216-.111c-.032-.017-.073.007-.108,0a1.341,1.341,0,0,1-.54-.223" transform="translate(-697.472 447.49)" fill="none" stroke="#7b563f" stroke-width="1"/>
    <path id="path12205" d="M485.771,98.82l4.1,2.451" transform="translate(-573.755 446.239)" fill="none" stroke="#7b563f" stroke-width="1"/>
    <path id="path12207" d="M541.587,65.73,498.6,79.878" transform="translate(-580.43 462.953)" fill="none" stroke="#7b563f" stroke-width="1"/>
    <path id="path12209" d="M492.975,94.229l.432-3.175" transform="translate(-577.503 450.162)" fill="none" stroke="#7b563f" stroke-width="1"/>
    <path id="path12213" d="M492.018,89.742l7.425-1.727" transform="translate(-577.005 451.697)" fill="none" stroke="#7b563f" stroke-width="1"/>
    <path id="path12534" d="M494.213,91.612l27.594-11.363" transform="translate(-578.147 455.619)" fill="none" stroke="#7b563f" stroke-width="1"/>
    <path id="path12649" d="M494.156,103.827l.081-.111" transform="translate(-578.117 443.766)" fill="none" stroke="#7b563f" stroke-width="1"/>
    <path id="path12651" d="M522.462,80.418,494.381,92" transform="translate(-578.234 455.534)" fill="none" stroke="#7b563f" stroke-width="1"/>
    <path id="path12653" d="M569.166,66.462l-17.5,6.99" transform="translate(-608.037 462.583)" fill="none" stroke="#7b563f" stroke-width="1"/>
    <path id="path12655" d="M588.294,64.716c-.168,0-.076-.017-.27.084" transform="translate(-626.949 463.466)" fill="none" stroke="#7b563f" stroke-width="1"/>
    <path id="path12657" d="M584.873,65.412l1.242-.808" transform="translate(-625.309 463.522)" fill="none" stroke="#7b563f" stroke-width="1"/>
    <path id="path12659" d="M585.507,67.249l-4.968.808" transform="translate(-623.055 462.186)" fill="none" stroke="#7b563f" stroke-width="1"/>
    <path id="path12661" d="M554.765,73.753l12.447-5.041" transform="translate(-609.647 461.447)" fill="none" stroke="#7b563f" stroke-width="1"/>
    <path id="path12663" d="M586.076,65.449l-1.485.418" transform="translate(-625.162 463.095)" fill="none" stroke="#7b563f" stroke-width="1"/>
    <path id="path12665" d="M585.548,81.171l4.833-.641" transform="translate(-625.66 455.477)" fill="none" stroke="#7b563f" stroke-width="1"/>
    <path id="path134-2" data-name="path134" d="M371.789,102.75,39.111,99.323l-2.42,6.243Z" transform="translate(31.223 445.985)" fill="none" stroke="#7b563f" stroke-width="1"/>
    <path id="path139-2" data-name="path139" d="M26.723,90.6c-6.565-1.331-14.308-1.375-17.675-5.013-4.854-8.2,3.517-10.413,7.975-5.124-1.75-7.954-11.816-5.967-12.717.557-.4,6.77,3.331,8.723,6.9,9.58-3.351,1.83-6.4,4.02-6.574,9.358-.269,7.678,11.154,7.584,12.286,1.225-6.229,5.065-12.682,1.246-7.284-5.459C11.695,93.574,20.143,91.8,26.723,90.6Z" transform="translate(391.808 458.133)" fill="none" stroke="#7b563f" stroke-width="1"/>
    <path id="path1348-2" data-name="path1348" d="M273.853,85.345c-6.211,7.648-26.457,8.35-42.828,7.562-10.371-1.739-22.512-3.78-33.988-20.481A44.877,44.877,0,0,1,182.1,84.243l-21.338-.158c18.526-.208,30.907-6.838,37.722-18.984,6.438,18.116,19.5,22.166,32.693,24.656,23.822,3.423,33.836-.195,42.675-4.411Z" transform="translate(69.757 463.271)" fill="none" stroke="#7b563f" stroke-width="1"/>
    <path id="path6645-2" data-name="path6645" d="M599,72.89c16.646-7.242,33.571-17.258,63.463-16.513-1.877-6.278-9.03-10.962-19.923-8.886-14.607,2.892-29.554,15.228-43.54,25.4Z" transform="translate(-528.663 472.418)" fill="none" stroke="#7b563f" stroke-width="1"/>
    <path id="path7083-2" data-name="path7083" d="M619.283,90.667C581.225,75.6,562.019,77.75,516.16,89.579" transform="translate(-445.825 455.729)" fill="none" stroke="#7b563f" stroke-width="1"/>
    <path id="path7445-2" data-name="path7445" d="M673.192,52.456C668.944,32.249,654.081,32.1,648.62,32.181c-15.6.907-27.97,8.131-39.768,20.832-9.749,11.351-18.376,17.484-26.4,20.832l-.108,6.684c20.033,4.251,39.47,5.757,54.964-9.358-10.438,9.29-25.847,10.871-45.48,5.9l11.316-8.466" transform="translate(-531.419 479.903)" fill="none" stroke="#7b563f" stroke-width="1"/>
    <path id="path8305-2" data-name="path8305" d="M614.013,78.317A20.567,20.567,0,0,1,604.637,89.9l-11.855-.223c-8.423-5.394-7.707-11.057-8.191-13.145l2.371,1C587.745,82.4,591,85.592,598.386,86c7.425.217,9.048-4.664,10.885-9.358Z" transform="translate(-473.318 457.495)" fill="none" stroke="#7b563f" stroke-width="1"/>
    <path id="path8975-2" data-name="path8975" d="M748.544,54.476c9-9.754,4.493-18.608-4.2-27.182l-.108-16.264C762.972,31.97,760.751,45.087,748.544,54.476Z" transform="translate(-693.743 490.583)" fill="none" stroke="#7b563f" stroke-width="1"/>
    <path id="path9260-2" data-name="path9260" d="M754.08,51.306a17.042,17.042,0,0,0,2.835-4.537,1,1,0,0,1,.228-.461,1.6,1.6,0,0,0,.243-.716,1.465,1.465,0,0,1,.265-.72c.124-.093.187-.36.217-.914a3.99,3.99,0,0,1,.243-1.213c.179-.386.2-.736.2-3.328,0-2.624-.019-2.938-.206-3.342a3.673,3.673,0,0,1-.24-1.31,2.1,2.1,0,0,0-.248-1.17,1.722,1.722,0,0,1-.238-.836,1.083,1.083,0,0,0-.215-.709,1.44,1.44,0,0,1-.262-.695,1.8,1.8,0,0,0-.212-.683,1.393,1.393,0,0,1-.211-.5c-.111-.522-.286-.947-.39-.947-.052,0-.095-.088-.1-.195a1.527,1.527,0,0,0-.214-.557c-.117-.2-.178-.363-.134-.364s.031-.039-.028-.084a2.911,2.911,0,0,1-.368-.639c-.375-.8-2.158-3.9-2.395-4.168a.822.822,0,0,1-.2-.312,1.155,1.155,0,0,0-.256-.375,1.792,1.792,0,0,1-.33-.528c-.041-.133-.141-.243-.222-.243s-.178-.1-.216-.223a.674.674,0,0,0-.277-.338c-.115-.063-.208-.157-.208-.209a2.108,2.108,0,0,0-.39-.525,3.526,3.526,0,0,1-.54-.794c-.083-.2-.218-.362-.3-.362s-.179-.125-.216-.278-.14-.279-.227-.279-.16-.046-.16-.1a.991.991,0,0,0-.21-.362l-.539-.665a1.515,1.515,0,0,1-.329-.572.277.277,0,0,0-.216-.226.3.3,0,0,1-.216-.291c0-.135-.069-.233-.164-.233s-.219-.125-.287-.278-.184-.279-.26-.279-.168-.1-.207-.226a1.588,1.588,0,0,0-.331-.5.909.909,0,0,1-.261-.429c0-.16-.309-.292-.689-.3-.2,0-.2.187-.15,7.237l.055,7.239,1.551,1.651a36.352,36.352,0,0,1,5.01,6.457,8.81,8.81,0,0,0,.6.945,1.464,1.464,0,0,1,.269.557c.033.169.128.308.21.308s.179.148.214.329a1.112,1.112,0,0,0,.265.517,1.229,1.229,0,0,1,.269.591,1.065,1.065,0,0,0,.231.536,1.718,1.718,0,0,1,.242.835,3.929,3.929,0,0,0,.271,1.077c.166.326.191.68.187,2.681A7.957,7.957,0,0,1,754.641,48a5.007,5.007,0,0,0-.266,1.14,1.742,1.742,0,0,1-.241.836,1.107,1.107,0,0,0-.225.568,1.5,1.5,0,0,1-.283.676.824.824,0,0,0-.22.407.477.477,0,0,1-.117.287c-.072.074-.077.147-.015.187s.418-.322.8-.8Z" transform="translate(-694.62 488.932)" fill="#7b563f" stroke="#7b563f" stroke-width="0.17"/>
    <path id="path10593-2" data-name="path10593" d="M749.556,53.2c6.9-5.7,9.545-12.366,8.01-20.183-.818-4.166-3.153-9.188-6.609-14.213a88.688,88.688,0,0,0-6.517-8.179l-.663-.724.029,8.422.029,8.422,1.648,1.758c4,4.268,6.175,7.77,7.156,11.531a9.624,9.624,0,0,1,.241,3.008,9.93,9.93,0,0,1-.8,4.645,20.772,20.772,0,0,1-3.468,5.523c-.4.477-.434.55-.287.7s.276.077,1.233-.713Zm1.55-2.536a13.728,13.728,0,0,0,1.2-13.188c-.488-1.17-.423-1.357.088-.253.191.414.437.929.545,1.146a3.732,3.732,0,0,1,.275.947,5.369,5.369,0,0,0,.253,1,20.144,20.144,0,0,1-.008,5.57,8.1,8.1,0,0,0-.255,1.058,3.432,3.432,0,0,1-.277.89,1.852,1.852,0,0,0-.2.531,3.286,3.286,0,0,1-.333.752,1.852,1.852,0,0,0-.282.75,11.649,11.649,0,0,1-1.723,1.979c-.014,0,.309-.531.718-1.18Zm4.84-6.359c.127-.226.158-.154.054.127-.037.1-.09.158-.118.129s0-.144.064-.255Zm.444-1.185a.8.8,0,0,1,.16-.362c.147-.2.15-.185.043.146-.122.378-.2.465-.2.216Zm.541-2.09c.066-.272.169-.706.229-.965a26.15,26.15,0,0,0,.065-3.231,11.935,11.935,0,0,0-.229-3.25,2.761,2.761,0,0,1-.152-1c.029-.456.06-.371.29.769a25.818,25.818,0,0,1,.233,6.247c-.178,1.189-.476,2.426-.518,2.157a2.526,2.526,0,0,1,.083-.724Zm-5.324-5.067c-.037-.1-.019-.144.042-.1a.238.238,0,0,1,.107.173C751.756,36.195,751.679,36.159,751.607,35.966Zm5.14-4.193c.034-.089.06-.062.065.067s-.021.183-.057.146a.23.23,0,0,1-.009-.214Zm-.4-1.151-.065-.443.146.39a6.194,6.194,0,0,1,.217.724l.071.334-.152-.281a2.649,2.649,0,0,1-.217-.724Zm-.437-1.335c-.067-.333-.066-.333.1.041.191.428.211.552.067.4A1.174,1.174,0,0,1,755.907,29.288Zm-.484-1.337c0-.061.047-.036.1.056a.683.683,0,0,1,.1.278c0,.061-.047.036-.1-.056A.683.683,0,0,1,755.423,27.951Zm-5.338-9.213c-.3-.373-.64-.845-.763-1.05a9.484,9.484,0,0,0-.724-.959,14.228,14.228,0,0,1-1.389-1.8,4.5,4.5,0,0,0-.867-1.079,8.721,8.721,0,0,1-1.024-1.328c-.183-.271-.182-.274.016-.111.327.268,3.164,3.827,4.263,5.347.553.766,1.053,1.455,1.111,1.532s.062.136.01.133a3.578,3.578,0,0,1-.633-.684Zm-5.874-7.075V11.14l.438.44.438.44-.411.068c-.226.037-.423.075-.438.084a2.3,2.3,0,0,1-.027-.508Z" transform="translate(-693.506 491.151)" fill="#7b563f" stroke="#7b563f" stroke-width="0.17"/>
    <path id="path10632-2" data-name="path10632" d="M749.419,53.334a37.645,37.645,0,0,0,5.183-5.444,18.709,18.709,0,0,0,3.272-8.158,23.172,23.172,0,0,0-.223-6.649q-1.9-9.357-11.573-20.729c-1.059-1.243-2.245-2.562-2.3-2.562-.026,0-.024,3.822,0,8.494l.052,8.494,1.634,1.735c4.184,4.442,6.691,8.636,7.291,12.2a20.5,20.5,0,0,1-.218,5.509,20.569,20.569,0,0,1-3.615,6.506c-.67.83-.809,1.162-.526,1.26a3.889,3.889,0,0,0,1.024-.651Zm2.007-3.131a13.685,13.685,0,0,0,1.385-11.559l-.433-1.281c-.041-.123.072.063.253.412a10.8,10.8,0,0,1,.621,1.727,10.23,10.23,0,0,1,.3,3.487,11.081,11.081,0,0,1-.239,3.343,13.482,13.482,0,0,1-.946,2.68,2.9,2.9,0,0,0-.266.694,8,8,0,0,1-1.239,1.527,11.15,11.15,0,0,1,.565-1.029ZM757.3,36.166c.019-.628.035-.114.035,1.142s-.016,1.77-.035,1.142-.019-1.656,0-2.284Zm-.314-3.231c.03-.077.054-.014.054.139s-.024.216-.054.139A.443.443,0,0,1,756.986,32.935Zm-6.948-14.426c-.134-.177-.13-.181.041-.042a.692.692,0,0,1,.189.195c0,.092-.089.033-.229-.153Zm-.323-.446c-.134-.177-.13-.181.041-.042a.692.692,0,0,1,.189.195c0,.092-.088.033-.229-.153Zm-.323-.446c-.134-.177-.13-.181.041-.042a.69.69,0,0,1,.189.195C749.621,17.862,749.532,17.8,749.391,17.618Zm-1.192-1.56c-.89-1.121-.987-1.253-.921-1.253a11.429,11.429,0,0,1,.879,1.058,11.012,11.012,0,0,1,.775,1.058A9.023,9.023,0,0,1,748.2,16.058Zm-2.262-2.841c-.331-.479-.177-.36.286.223.231.291.309.429.173.306a3.616,3.616,0,0,1-.459-.529Zm-1.6-1.551v-.354l.275.267c.251.244.258.274.081.346C744.372,12.057,744.34,12.034,744.34,11.666Z" transform="translate(-693.527 491.208)" fill="#7b563f" stroke="#7b563f" stroke-width="0.17"/>
    <path id="path10671-2" data-name="path10671" d="M749.484,53.459c.4-.308,1.172-1,1.724-1.529,3.817-3.68,5.789-6.947,6.682-11.071a14.475,14.475,0,0,0,.244-3.83,16.263,16.263,0,0,0-.246-3.843c-1.134-5.537-4.183-11.455-9.261-17.977a58.279,58.279,0,0,0-4.672-5.417c-.112,0-.129,9.781-.025,14.148l.07,2.952,1.469,1.56a37.407,37.407,0,0,1,3.728,4.455,18.479,18.479,0,0,1,3.713,8.283,18.233,18.233,0,0,1-.374,5.337,20.225,20.225,0,0,1-3.255,5.849c-.875,1.153-1.041,1.546-.679,1.613a2.688,2.688,0,0,0,.88-.53ZM752,49.518a16.845,16.845,0,0,0,1.457-3.91c.157-.686.191-.763.146-.334a14.27,14.27,0,0,1-1.8,4.985,2.511,2.511,0,0,1-.359.418A10.887,10.887,0,0,1,752,49.518Zm1.482-9.334c.034-.089.06-.062.065.067s-.021.183-.057.146A.23.23,0,0,1,753.487,40.183Zm-.108-.446c.034-.089.06-.062.065.067s-.021.183-.057.146A.231.231,0,0,1,753.379,39.738Zm-.108-.446c.035-.089.06-.062.065.067s-.021.183-.057.146A.231.231,0,0,1,753.271,39.292Zm-8.7-27.56c-.1-.273-.079-.309.1-.158s.214.334.065.334c-.053,0-.126-.079-.162-.176Z" transform="translate(-693.695 491.208)" fill="#7b563f" stroke="#7b563f" stroke-width="0.17"/>
    <path id="path10710-2" data-name="path10710" d="M749.218,53.725c.248-.17.939-.751,1.534-1.292,3.892-3.53,6.161-7.137,7.151-11.37a14.985,14.985,0,0,0,.238-3.961,18.031,18.031,0,0,0-.2-3.9c-1.05-4.971-3.676-10.383-7.742-15.956-2.349-3.22-6.086-7.624-6.29-7.414-.086.089-.07,15.681.017,16.483l.068.633L745.52,28.6a36.2,36.2,0,0,1,4.7,5.936,25.37,25.37,0,0,1,2.146,4.4,13.854,13.854,0,0,1,.4,6.071c-.3,2.263-1.112,3.995-3.363,7.145A8.2,8.2,0,0,0,748.39,53.8c0,.326.281.3.828-.075Zm2.966-4.421a2.777,2.777,0,0,1,.383-.68,6.217,6.217,0,0,1-.676,1.4A3.139,3.139,0,0,1,752.185,49.3Zm.5-1.137c.127-.226.158-.154.054.127-.037.1-.09.158-.118.129S752.625,48.279,752.688,48.167Z" transform="translate(-693.697 491.191)" fill="#7b563f" stroke="#7b563f" stroke-width="0.17"/>
    <path id="path10749-2" data-name="path10749" d="M529.654,83.232a43.164,43.164,0,0,0,20.669-6.812,6.888,6.888,0,0,0,.965-.7,9.227,9.227,0,0,0-1.217.557A38.407,38.407,0,0,1,537.2,79.964a76.695,76.695,0,0,1-9.915.174,79.391,79.391,0,0,1-8.244-1.012,69.8,69.8,0,0,1-8.025-1.776,14.254,14.254,0,0,1,1.266-.982c.694-.506,2.469-1.834,3.945-2.952l2.683-2.032,1.149-2.983c1.1-2.845,1.169-3,1.574-3.278.234-.162,3.019-2.207,6.191-4.544,6.078-4.479,8.093-5.932,10.992-7.929,9.452-6.508,17.123-10.4,24.009-12.177,6.068-1.567,11.477-1.229,15.72.982a12.585,12.585,0,0,1,6.281,6.995l.309.877-4.111.011a94.96,94.96,0,0,0-9.877.439c-12.9,1.271-23.328,4.212-37.612,10.606-5.461,2.445-9.046,4.095-8.962,4.125.046.017,1.2-.249,2.556-.591,14.1-3.539,23.955-5.593,32.557-6.787,1.447-.2,2.654-.389,2.683-.42a18.361,18.361,0,0,0-.339-2.566c-.049-.165-.02-.179.191-.091l1.434.6,1.184.5.147.624c.174.735-.091.69,2.657.461a113.553,113.553,0,0,1,15.735-.175c.889.063,1.85.127,2.136.142l.519.028.251-.613c.138-.337.325-.8.416-1.026l.166-.413,2.586.9,2.586.9-.2.486-.2.486.345.06,1.692.288A152.381,152.381,0,0,1,622.8,65.8l1.59.62,3.476.065a18.909,18.909,0,0,0,3.314-.042c-.274-.181-38.585-16.094-38.632-16.047a3.123,3.123,0,0,0,.148.768c.338,1.276.349,1.416.112,1.48-.161.044-.226-.013-.275-.239-.128-.587-.277-1.2-.432-1.758-.146-.53-.194-.586-.665-.771-1.207-.475-1.406-.6-1.348-.83.052-.2.117-.216.8-.151l.741.071-.2-.6a27.163,27.163,0,0,0-4.72-8.6A20.433,20.433,0,0,0,574,32.95a37.829,37.829,0,0,0-5.874-.336c-11.888.786-21.957,5.04-31.954,13.5A107.016,107.016,0,0,0,526,56.313a94.309,94.309,0,0,1-8.944,8.651,61.165,61.165,0,0,1-14.2,9l-.55.235-.078,3.142c-.043,1.728-.056,3.166-.028,3.195.071.073,4.019.846,6.714,1.314a110.169,110.169,0,0,0,11.231,1.4c1.928.134,7.709.126,9.5-.013Z" transform="translate(-451.035 479.691)" fill="#7b563f" stroke="#7b563f" stroke-width="0.17"/>
    <path id="path10788-2" data-name="path10788" d="M498.322,105.452c7.884-.076,15.716-.146,17.405-.156s17.184-.138,34.433-.285,36.163-.3,42.031-.342,10.731-.109,10.806-.15-.205-.187-.646-.332-2.383-.922-4.34-1.734l-3.556-1.476-5.227-.069c-2.875-.038-13.659-.154-23.964-.257-15.719-.158-18.775-.164-18.968-.038-.127.083-.643.405-1.146.717l-.916.567-5.976-.1-5.976-.1-1.029-.7-1.029-.7-22.363-.231c-12.3-.127-22.851-.23-23.447-.23h-1.085l-.936,2.424c-.515,1.333-.936,2.46-.936,2.5a12.261,12.261,0,0,0,1.479-1.031c1.3-.976,1.5-1.091,1.637-.947.087.09.137.182.111.205s-.775.584-1.664,1.246-1.663,1.246-1.719,1.3a4.015,4.015,0,0,0,1.293.075c.768-.01,7.846-.08,15.729-.155Z" transform="translate(-412.86 445.728)" fill="#7b563f" stroke="#7b563f" stroke-width="0.17"/>
    <path id="path10827-2" data-name="path10827" d="M608.21,90.251a19.965,19.965,0,0,0,5.433-7,7.139,7.139,0,0,0,.523-1.244c-.041-.042-2.015-.311-4.166-.567l-.453-.054-.608,1.25a11.825,11.825,0,0,1-2.232,3.407,8.367,8.367,0,0,1-5.823,2.576,15.406,15.406,0,0,1-9.916-2.573,9.077,9.077,0,0,1-2.777-3.97c-.1-.363-.186-.473-.359-.471a9.073,9.073,0,0,0-1.647.26,10.849,10.849,0,0,0,.771,2.655,15.232,15.232,0,0,0,.969,1.824,20.78,20.78,0,0,0,3.347,3.726l.562.448,6.67.055c3.668.03,7.212.078,7.876.105l1.206.05Z" transform="translate(-474.23 455.045)" fill="#7b563f" stroke="#7b563f" stroke-width="0.17"/>
    <path id="path10866-2" data-name="path10866" d="M642.294,79.254a5.58,5.58,0,0,0,.847-.147,1.517,1.517,0,0,0-.106-.517c-.14-.453-.185-.49-1.009-.831a4.726,4.726,0,0,0-.9-.318,8.451,8.451,0,0,0,.293,1.931C641.456,79.365,641.851,79.311,642.294,79.254Z" transform="translate(-529.514 457.038)" fill="#7b563f" stroke="#7b563f" stroke-width="0.17"/>
    <path id="path10905-2" data-name="path10905" d="M589.985,79.2c.071-.16.108-.309.084-.331s-1-.368-2.166-.768l-2.121-.729-.281.727a2.461,2.461,0,0,0-.224.786,15.249,15.249,0,0,0,1.7.252c.9.106,1.922.229,2.261.274.593.078.621.07.745-.211Z" transform="translate(-449.707 457.075)" fill="#7b563f" stroke="#7b563f" stroke-width="0.17"/>
    <path id="path10944-2" data-name="path10944" d="M614.983,101.453l.684-.435-.792-.063c-.762-.061-13.671-.181-13.671-.127a7.217,7.217,0,0,0,.62.46l.62.434,3.5.071c1.926.039,4.594.077,5.927.083l2.425.013Z" transform="translate(-482.927 445.231)" fill="#7b563f" stroke="#7b563f" stroke-width="0.17"/>
    <path id="path11022-2" data-name="path11022" d="M466,66.553a28.529,28.529,0,0,0,4.8-3.838A19.4,19.4,0,0,0,476.993,50a6.356,6.356,0,0,0-.113-2.6,17.21,17.21,0,0,0-2.33-5.866c-3.972-6.189-12.271-9.327-19.988-7.557a17.388,17.388,0,0,0-1.778.494c-1.24.483-4.461,3.344-5.737,5.1a14.2,14.2,0,0,0-1.85,3.614c-1.1,3.736.159,7.812,3.49,11.287a14.214,14.214,0,0,0,3.752,2.933c1.083.541,1.368.632,1.366.434,0-.18-.727-3-.788-3.06-.024-.025-.438-.242-.921-.484a8.668,8.668,0,0,1-4.617-4.793,8.44,8.44,0,0,1-.148-4.273,11.461,11.461,0,0,1,6.8-7.887,15.953,15.953,0,0,1,4.627-.478,14.47,14.47,0,0,1,11.227,6.222,9.455,9.455,0,0,1,1.374,3.364,14.02,14.02,0,0,1-.952,5.984c-2.582,6.412-10.524,11.562-20.64,13.385a25.62,25.62,0,0,1-8.729.216c-8.163-.794-17.054-3.02-35.188-8.81-15.418-4.923-20.227-6.272-25.366-7.112-1.028-.168-1.3-.156-1.084.049.055.053,3.326,1.437,7.267,3.074s8.767,3.643,10.723,4.457l12.951,5.389,9.395,3.908,21.051.224c11.578.123,21.687.224,22.465.225h1.414Z" transform="translate(-238.102 479.24)" fill="#7b563f" stroke="#7b563f" stroke-width="0.17"/>
    <path id="path11061-2" data-name="path11061" d="M435.528,105.562l8.029-.076,1.4-.527a39.245,39.245,0,0,0,4.89-2.338c-.022-.022-8.018-.119-17.769-.215s-19.353-.2-21.339-.242a26.711,26.711,0,0,0-3.5.033c.19.177,5.549,2.348,7.217,2.924l1.613.557,5.716-.02c3.144-.011,9.329-.054,13.745-.1Z" transform="translate(-224.242 444.561)" fill="#7b563f" stroke="#7b563f" stroke-width="0.17"/>
    <path id="path11100-2" data-name="path11100" d="M438.873,111.653a49.7,49.7,0,0,0,8.514-1.436l.754-.214-5.981.006c-3.29,0-8.624.036-11.855.074l-5.874.068,1.239.313a48.73,48.73,0,0,0,5.82,1.027,55.439,55.439,0,0,0,7.382.162Z" transform="translate(-230.767 440.59)" fill="#7b563f" stroke="#7b563f" stroke-width="0.17"/>
    <path id="path11139-2" data-name="path11139" d="M305.1,105.805c1.245-.014,8.81-.078,16.812-.142,30.393-.245,31.22-.255,31.071-.4-.077-.073-.652-.492-1.278-.931l-1.138-.8L338.1,103.41c-10.16-.1-12.522-.1-12.765.016-.554.267-21.691.109-21.691-.162a7.214,7.214,0,0,0-2.816-.278h-1.038l-1.89,1.006c-1.039.553-2.391,1.2-3,1.445l-1.114.438,4.526-.022c2.49-.012,5.545-.033,6.79-.047Z" transform="translate(-73.064 444.135)" fill="#7b563f" stroke="#7b563f" stroke-width="0.17"/>
    <path id="path11178-2" data-name="path11178" d="M329.618,84.283a32.042,32.042,0,0,1-5.807-4.6c-3.461-3.456-5.838-7.259-8.141-13.025l-.174-.436-.592.975c-5.122,8.433-13.519,14.028-24.6,16.39-.992.212-1.913.385-2.047.385s-.242.048-.242.105,2.26.121,5.793.146l5.793.041.962-.493a45.112,45.112,0,0,0,12.693-10.123l.864-1.031.758,1.082a53.082,53.082,0,0,0,9.056,9.952l1.054.878,2.5,0,2.5,0Z" transform="translate(-47.311 462.707)" fill="#7b563f" stroke="#7b563f" stroke-width="0.17"/>
    <path id="path11217-2" data-name="path11217" d="M285.865,105.9c1.432-.039,2.065-.092,1.886-.157-.148-.054-.924-.427-1.724-.831l-1.455-.733-2.048-.04c-1.126-.022-2.314-.024-2.64,0l-.593.035,1.339.919,1.339.919.87-.024,3.025-.084Z" transform="translate(-0.917 443.559)" fill="#7b563f" stroke="#7b563f" stroke-width="0.17"/>
    <path id="path11256-2" data-name="path11256" d="M195.515,114.426c13.292-.252,22.595-2.281,27.356-5.965a3.813,3.813,0,0,0,.745-.658,11.628,11.628,0,0,0-1.545.605,51.978,51.978,0,0,1-16.318,4.217,62.681,62.681,0,0,1-6.682.2,96.7,96.7,0,0,1-14.911-1,73.375,73.375,0,0,1-13.614-3.231l-1.03-.385h-1.954a20.476,20.476,0,0,0-4.3.23,43.349,43.349,0,0,0,4.612,2.251,54.255,54.255,0,0,0,11.747,3.15,27.737,27.737,0,0,0,4.688.5c3.572.149,6.905.177,11.208.1Z" transform="translate(118.8 441.703)" fill="#7b563f" stroke="#7b563f" stroke-width="0.17"/>
    <path id="path11295-2" data-name="path11295" d="M234.413,84.279c2.715-.793,4.305-2.4,4.731-4.771.041-.23.051-.418.022-.418a7.338,7.338,0,0,0-.758.551,12.724,12.724,0,0,1-1.7,1.06c-2.887,1.47-5.624,1.2-6.58-.651A4.367,4.367,0,0,1,230.178,77a6.692,6.692,0,0,1,2.758-3.514c2-1.084,4.486-1.837,10.773-3.256a.282.282,0,0,0,.243-.317V69.65l-1.212.266c-6.142,1.349-10.025,2.742-11.254,4.036a10.258,10.258,0,0,0-1.834,3.12,4.7,4.7,0,0,0,.005,3.076c.844,1.869,3.288,2.513,5.964,1.571a12.185,12.185,0,0,0,2.421-1.2c.426-.311.445-.264.14.358-1.626,3.317-7.071,4.174-9.794,1.542-1.432-1.385-1.841-3.283-1.3-6.02.582-2.923,2.331-5.018,5.805-6.956l.961-.536-.961-.246c-3.137-.8-5.123-2.458-5.908-4.928a10.465,10.465,0,0,1-.378-4.723,6.688,6.688,0,0,1,6-5.061,5.659,5.659,0,0,1,5.677,3.547l.165.413-.673-.524a7.312,7.312,0,0,0-4.348-1.593,3.946,3.946,0,0,0-3.257,1.3c-1.133,1.331-1.113,3.379.057,5.927a4.757,4.757,0,0,0,1.752,2.143c1.946,1.365,4.747,2.231,9.542,2.95,1.067.16,2.049.315,2.182.345.2.044.243.006.243-.214,0-.251-.056-.276-.889-.4-6.229-.9-9.282-1.833-11.264-3.452a7.4,7.4,0,0,1-1.965-4.713,2.92,2.92,0,0,1,1.659-2.986c1.839-.936,4.629-.257,6.6,1.607.651.616.794.705.945.591s.165-.18,0-.747a6.36,6.36,0,0,0-4.463-4.523,7.809,7.809,0,0,0-3.841.221,7.544,7.544,0,0,0-3.879,3.146,6.21,6.21,0,0,0-.806,3.47c-.006,3.817,1.353,6.3,4.245,7.767l.993.5h-1.455c-.8,0-7.905-.073-15.789-.163s-19.377-.215-25.542-.279l-21.716-.227c-5.779-.06-17.928-.183-27-.272s-18.623-.193-21.231-.23l-4.742-.068-.862-.51a33.284,33.284,0,0,1-3.826-2.685,39.226,39.226,0,0,1-4.847-5.035,42.3,42.3,0,0,1-5.723-10.886c-.1-.276-.132-.244-.734.776a34.078,34.078,0,0,1-8.485,9.732,40.809,40.809,0,0,1-18.792,7.667,36.353,36.353,0,0,1-8.383.42l-4.449-.077,1.27-.857A27.65,27.65,0,0,0,63.918,61.8a19.682,19.682,0,0,0,3.188-4.273c1.871-3.36,2.831-7.751,2.314-10.579a17.948,17.948,0,0,0-2.473-6.269c-4.351-6.678-13.632-9.8-21.72-7.3A13.583,13.583,0,0,0,40.388,36.9c-4.895,5-5.288,10.547-1.14,16.077,1.865,2.487,5.21,4.935,6.754,4.944a2.327,2.327,0,0,0,.508-.025c0-.015-.232-.922-.512-2.015l-.509-1.988-.646-.28a9.421,9.421,0,0,1-4.5-3.89,6.277,6.277,0,0,1-.7-3.45c.185-3.942,3.566-8.209,7.245-9.143a22.115,22.115,0,0,1,6.056-.008C58.607,38.386,63,42.71,63,47.015a14.475,14.475,0,0,1-.65,3.891C60.6,56.207,55.4,60.63,47.823,63.271a40.158,40.158,0,0,1-8.369,1.947,17.892,17.892,0,0,1-3.395.054,93.766,93.766,0,0,1-19.384-3.4c-1.266-.333-2.345-.605-2.4-.605s-.1,2.124-.1,4.9v4.9h7.943l1.228.33a44.917,44.917,0,0,0,19.981.952,51.675,51.675,0,0,0,5.227-1.272c.873-.283,2.059-.307,23.171-.459,8.328-.06,20.579-.162,27.224-.226l12.082-.117.575.35a42.246,42.246,0,0,0,7.323,3.318,61.137,61.137,0,0,0,9.969,2.4,32.038,32.038,0,0,0,6.035.511c19.37.612,32.5-1.684,37.886-6.626l.542-.5h3.2c1.761,0,10.962-.073,20.446-.161s21.269-.194,26.189-.236l8.945-.076-1.155.79a9.374,9.374,0,0,0-4.577,7.993,5.718,5.718,0,0,0,.542,3.27,5.47,5.47,0,0,0,3.183,2.77,5.545,5.545,0,0,0,2.222.315,7.343,7.343,0,0,0,2.048-.118ZM140.921,74.138A82.55,82.55,0,0,1,122.44,71c-1.126-.339-2.112-.655-2.192-.7s4.236-.117,9.591-.158,15.628-.127,22.83-.193,14.258-.1,15.681-.083l2.587.035-1.293.544c-5.5,2.313-10.533,3.4-18.052,3.9-1.358.09-8.624-.052-10.669-.209Zm-23.484-4.92c-.687-.283-1.517-.657-1.843-.83L115,68.072l.377,0c.207,0,12.089.12,26.4.272s27.336.281,28.937.287l2.91.011-.647.31-.647.31-25.65.221c-14.107.121-26.179.228-26.825.237a4.168,4.168,0,0,1-2.425-.5Zm56.462-.131a.579.579,0,0,0-.135-.344c-.109-.116-.024-.132.458-.081.326.034,5.055.1,10.508.136s11.37.109,13.148.151c3.109.075,3,.079-2.8.112-6.957.04-20.443.172-20.881.2C173.974,69.282,173.9,69.236,173.9,69.087ZM85.718,67.21l-1.91-.07.94-.556a43.764,43.764,0,0,0,10.084-7.9,19.332,19.332,0,0,1,2.218-2.133c.043.052.484.646.98,1.32a56.488,56.488,0,0,0,7.65,8.462c.563.483,1.072.926,1.132.984.114.111-17.605.023-21.093-.1Z" transform="translate(169.838 479.726)" fill="#7b563f" stroke="#7b563f" stroke-width="0.17"/>
    <path id="path11334-2" data-name="path11334" d="M176.062,105.928c43.618-.376,42.911-.367,43.43-.591.457-.2.469-.213.216-.286-.148-.043-1.893-.082-3.879-.088-3.328-.01-25.018-.222-45.372-.444-4.653-.051-8.477-.078-8.5-.06a14.808,14.808,0,0,0,3.594,1.512C165.79,106,170.519,105.976,176.062,105.928Z" transform="translate(123.167 443.393)" fill="#7b563f" stroke="#7b563f" stroke-width="0.17"/>
    <path id="path11410-2" data-name="path11410" d="M129.374,106l6.52-.057-4.8-.083c-2.638-.045-7.763-.114-11.39-.151l-6.594-.069.059.235.059.235,4.81-.027c2.646-.015,7.744-.052,11.33-.084Z" transform="translate(230.529 442.795)" fill="#7b563f" stroke="#7b563f" stroke-width="0.17"/>
    <path id="path11449-2" data-name="path11449" d="M14.2,105.814a5.949,5.949,0,0,0,4.635-2.893,1.593,1.593,0,0,0,.229-.548,4.012,4.012,0,0,0-.576.329,8.509,8.509,0,0,1-4.5,1.38,3.444,3.444,0,0,1-2.969-1.14,2.9,2.9,0,0,1-.837-2.679,3.84,3.84,0,0,1,.544-2.036,8.03,8.03,0,0,1,1.99-2.782c1.668-1.141,4.709-2.194,9.731-3.369,1.2-.28,2.276-.51,2.395-.51a32.31,32.31,0,0,0,3.178-.628c-.037-.038-2.465-.4-4.009-.594a41.451,41.451,0,0,1-9.2-2.085c-2.6-1.151-3.56-2.171-4.389-4.658a6.025,6.025,0,0,1-.078-3.64,4.058,4.058,0,0,1,1.744-1.839,3.492,3.492,0,0,1,1.794-.347,6.461,6.461,0,0,1,4.433,1.368,6.988,6.988,0,0,0,.751.5c.177,0-.753-1.487-1.252-2A5.381,5.381,0,0,0,13.8,75.972a6.49,6.49,0,0,0-4.779,2.068c-1.584,1.631-2.074,3.686-1.537,6.438a7.224,7.224,0,0,0,2.289,4.2,10.482,10.482,0,0,0,3.712,1.844c.61.165,1.07.338,1.024.384s-.562.363-1.146.7A12.547,12.547,0,0,0,9.21,95.163a9.781,9.781,0,0,0-1.523,5.262,4.911,4.911,0,0,0,1.52,3.9,6.045,6.045,0,0,0,4.991,1.486Z" transform="translate(389.077 457.78)" fill="#7b563f" stroke="#7b563f" stroke-width="0.17"/>
    <path id="path11521-2" data-name="path11521" d="M165.213,106.359c-.271,0-.557,0-.822-.014a2.929,2.929,0,0,0-.418-.042c-.811.067.24-.015-.472.07-.045.005-.09,0-.135,0a.729.729,0,0,0-.2.056.373.373,0,0,1-.054.028.3.3,0,0,1-.067,0s-.013,0-.013,0a1.761,1.761,0,0,1,.3-.042c.116-.017.107-.043.229-.056a1.836,1.836,0,0,1,.35,0c.43.038.108.039.5.084.045.005.09,0,.135,0a4.174,4.174,0,0,0,.445,0c.054,0,.108-.011.162-.014.027,0,.054,0,.081,0,0,0,.013,0,.013,0s-.009,0-.013,0l-.162.014-.175.014c-.3.021-.611.018-.916.028a4,4,0,0,0-.5,0c-.045.023-.09.063-.135.084-.175.08.016-.044-.108.042" transform="translate(177.285 442.46)" fill="none" stroke="#7b563f" stroke-width="1"/>
    <path id="path11523-2" data-name="path11523" d="M161.061,105.772l4.526-.273" transform="translate(177.881 442.865)" fill="none" stroke="#7b563f" stroke-width="1"/>
    <path id="path11525-2" data-name="path11525" d="M160.161,106.642a.474.474,0,0,1-.094.028c-.09.007-.18,0-.269,0-.05,0-.1.009-.148.014-.184.009-.368.028-.552.028a1.129,1.129,0,0,1-.175-.028" transform="translate(184.331 442.288)" fill="none" stroke="#7b563f" stroke-width="1"/>
    <path id="path11527-2" data-name="path11527" d="M639.966,76.535c1.415.094,1.344.015,1.994.836a5.145,5.145,0,0,0,.7.724c.014.012.041-.013.054,0s.088.46.162.613" transform="translate(-528.693 457.495)" fill="none" stroke="#7b563f" stroke-width="1"/>
    <path id="path11529-2" data-name="path11529" d="M579.864,67.738c.323.013.65-.045.97,0,1.544.218.012.087.539.223a2.968,2.968,0,0,1,.7.223,5.545,5.545,0,0,1,.593.446c.07.048.216-.012.216.111" transform="translate(-439.923 461.948)" fill="none" stroke="#7b563f" stroke-width="1"/>
    <path id="path11531-2" data-name="path11531" d="M723.592,97.012c.032-.1.785-.254.808-.279s-.015-.045,0-.056a1.912,1.912,0,0,1,.216-.111c.032-.017.073.007.108,0a1.336,1.336,0,0,0,.539-.223" transform="translate(-651.117 447.49)" fill="none" stroke="#7b563f" stroke-width="1"/>
    <path id="path12205-2" data-name="path12205" d="M489.866,98.82l-4.1,2.451" transform="translate(-301.859 446.239)" fill="none" stroke="#7b563f" stroke-width="1"/>
    <path id="path12207-2" data-name="path12207" d="M498.6,65.73,541.5,79.878" transform="translate(-359.632 462.953)" fill="none" stroke="#7b563f" stroke-width="1"/>
    <path id="path12209-2" data-name="path12209" d="M493.406,94.229l-.431-3.175" transform="translate(-308.848 450.162)" fill="none" stroke="#7b563f" stroke-width="1"/>
    <path id="path12213-2" data-name="path12213" d="M499.427,89.742l-7.409-1.727" transform="translate(-314.411 451.697)" fill="none" stroke="#7b563f" stroke-width="1"/>
    <path id="path12534-2" data-name="path12534" d="M521.749,91.612,494.213,80.249" transform="translate(-337.784 455.619)" fill="none" stroke="#7b563f" stroke-width="1"/>
    <path id="path12649-2" data-name="path12649" d="M494.237,103.827l-.081-.111" transform="translate(-310.244 443.766)" fill="none" stroke="#7b563f" stroke-width="1"/>
    <path id="path12651-2" data-name="path12651" d="M494.381,80.418,522.4,92" transform="translate(-338.517 455.534)" fill="none" stroke="#7b563f" stroke-width="1"/>
    <path id="path12653-2" data-name="path12653" d="M551.67,66.462l17.459,6.99" transform="translate(-412.673 462.583)" fill="none" stroke="#7b563f" stroke-width="1"/>
    <path id="path12655-2" data-name="path12655" d="M588.024,64.716c.168,0,.076-.017.269.084" transform="translate(-449.242 463.466)" fill="none" stroke="#7b563f" stroke-width="1"/>
    <path id="path12657-2" data-name="path12657" d="M586.112,65.412l-1.239-.808" transform="translate(-445.552 463.522)" fill="none" stroke="#7b563f" stroke-width="1"/>
    <path id="path12659-2" data-name="path12659" d="M580.539,67.249l4.958.808" transform="translate(-442.862 462.186)" fill="none" stroke="#7b563f" stroke-width="1"/>
    <path id="path12661-2" data-name="path12661" d="M567.186,73.753l-12.421-5.041" transform="translate(-412.211 461.447)" fill="none" stroke="#7b563f" stroke-width="1"/>
    <path id="path12663-2" data-name="path12663" d="M584.591,65.449l1.482.418" transform="translate(-445.378 463.095)" fill="none" stroke="#7b563f" stroke-width="1"/>
    <path id="path12665-2" data-name="path12665" d="M590.371,81.171l-4.823-.641" transform="translate(-450.134 455.477)" fill="none" stroke="#7b563f" stroke-width="1"/>
    <rect id="Rectangle_2" data-name="Rectangle 2" width="6" height="8" transform="translate(47.045 552.179)" fill="#7b563f"/>
    <rect id="Rectangle_3" data-name="Rectangle 3" width="6" height="8" transform="translate(47.045 552.179)" fill="#7b563f"/>
  </g>
</svg>
