<svg xmlns="http://www.w3.org/2000/svg" width="321.266" height="247.272" viewBox="0 0 321.266 247.272">
  <g id="logofero_pc1" transform="translate(-799.322 -158.488)">
    <path id="Tracé_1" data-name="Tracé 1" d="M138.367,0c76.727,0,138.926,43.5,138.926,97.166s-62.2,97.166-138.926,97.166S1.15,150.829,1.15,97.166,61.64,0,138.367,0Z" transform="translate(822.7 184.039)" fill="#7b563f"/>
    <ellipse id="Ellipse_1" data-name="Ellipse 1" cx="34.174" cy="108.768" rx="34.174" ry="108.768" transform="translate(926.149 174.324)" fill="#7b563f"/>
    <rect id="Rectangle_1" data-name="Rectangle 1" width="234.762" height="174.028" transform="translate(844.428 194.627)" fill="#7b563f"/>
    <path id="path569" d="M238.773,101.087c-20.394,19.352-40.632,26.669-55.578,29.9-35.149,7.586-59.285-14.467-69.5,15.021-.78,2.252-2.147,6.59,4.465,19.21-27.066,6.868,1.912,35.826-38.832,58.589,40.274,23.493,11.678,52.118,38.44,57.874-16.229,44.635,24.509,36.856,51.587,31.859,17.2-3.173,43.37,11.187,67.654,32.088,22.507-18.055,41.781-26.55,59.63-31.489,17.443-4.826,32.417,2.01,43.737,3.15,15.459,1.557,30.979-9.8,18.62-37.752,22.117,1.481,2.688-36.125,37.655-56.088-35.253-22.7-14.573-50.859-37.655-57.517,2.379-6.076,7.6-10.9,4.926-18.817-15.165-44.94-53.893,19.63-125.148-46.023Z" transform="translate(722.012 58.837)" fill="none" stroke="#000" stroke-width="2"/>
    <path id="path8695" d="M82.45,211.327c34.291-14.993,10-45.449,34.125-50.729-4.28-8.139-6.816-16.828-3.725-21.526,20.38-30.985,45.8,20.2,109.63-35.276" transform="translate(738.111 71.314)" fill="none" stroke="#000" stroke-width="2"/>
    <path id="path10674" d="M245.36,211.327c-34.323-14.993-10-45.449-34.157-50.729,4.284-8.139,6.822-16.828,3.729-21.526-20.4-30.985-45.843,20.2-109.735-35.276" transform="translate(855.393 71.314)" fill="none" stroke="#000" stroke-width="2"/>
    <path id="path10676" d="M82.45,122.974c34.291,15,10,45.458,34.125,50.74-4.28,8.141-6.816,16.832-3.725,21.531,20.38,30.992,45.8-20.207,109.63,35.284" transform="translate(738.111 159.666)" fill="none" stroke="#000" stroke-width="2"/>
    <path id="path10678" d="M245.36,122.974c-34.323,15-10,45.458-34.157,50.74,4.284,8.141,6.822,16.832,3.729,21.531-20.4,30.992-45.843-20.207-109.735,35.284" transform="translate(855.393 159.666)" fill="none" stroke="#000" stroke-width="2"/>
    <path id="path10749" d="M111.849,232.5c22.371,1.4-16.429-40.115-16.919-67.195,1.917-30.114,23.564-55.17,65.733-55.827,44.241,1.28,61.037,23.443,64.069,56.08-2.059,53.885-40.434,61.585-17.2,66.437l.278,12.378H190.063c-17.393-8.553-2.07-27.815,7.015-63.541.595-19.716-5.808-38.081-36.381-40.357-31.149,2.25-39.959,19.641-37.2,41.755,3.32,31.26,27.514,41.726,8.321,61.89h-19.97Z" transform="translate(802.46 97.513)" fill="none" stroke="#000" stroke-width="2"/>
    <path id="path31748" d="M187.586,241.536c-6.38-4.278-6.963-10.675-2.26-24.791.463-1.389,2.13-6.221,3.7-10.736,3.42-9.806,4.98-14.651,6.811-21.153,1.514-5.377,1.64-6.841,1.092-12.7-1.178-12.575-5.578-20.9-14.051-26.568-6.51-4.359-18.312-7.345-25.918-6.557-42.718,13.942-38.614,44.912-25.983,70.89,4.9,10.022,5.945,12.889,6.241,17.055.3,4.273-1.526,9.134-5.062,13.448l-1.6,1.958H111.786V232.6l1.49-.14c3.722-.35,5.446-2.185,5.442-5.8-3.973-19.441-16.768-32.033-22.313-53.076-1.77-6.9-1.743-11.088.125-19.358a54.5,54.5,0,0,1,21.909-32.846c11.027-7.645,25.217-11.71,40.914-11.721a77.479,77.479,0,0,1,14.561,1.128c26.207,4.125,41.707,18.046,47.121,42.322,1.781,7.985,2.063,12.262,1.27,19.24a84.368,84.368,0,0,1-9.941,32.069,98.421,98.421,0,0,1-8.683,13.02c-2.049,2.747-4.094,5.7-4.543,6.568-.976,1.88-1.07,3.467-.273,4.656.675,1.009,2.889,2.181,5.191,2.748l1.753.432v10.787h-16.58Z" transform="translate(803.348 98.362)" stroke="#000" stroke-width="2"/>
    <path id="path31787" d="M234.534,342.734c-.95-.956-8.532-6.985-11.913-9.473a145.812,145.812,0,0,0-27.172-16.274,66.768,66.768,0,0,0-13.036-4.55c-6.623-1.525-10.853-1.584-18.028-.25-11.229,2.088-18.5,3.013-25.239,3.211-5.744.169-9.556-.149-13.134-1.093-7.684-2.028-11.6-6.286-12.524-13.613-.542-4.306.447-10.779,2.638-17.268a32.142,32.142,0,0,0,.97-3.2c0-.18-.642-.459-1.456-.633-3.68-.787-7.234-2.84-8.918-5.149-2-2.74-2.654-5.264-3.636-13.971-1.225-10.859-2.919-16.431-6.768-22.263a53.455,53.455,0,0,0-15.076-14.287,7.233,7.233,0,0,1-1.589-1.164,7.056,7.056,0,0,1,1.595-1.132,57.389,57.389,0,0,0,8.618-6.437,37.4,37.4,0,0,0,12.242-21.318,103.5,103.5,0,0,0,1.55-11.265c.815-7.5,2.126-10.989,5.143-13.686a19.622,19.622,0,0,1,7.425-3.767,3.7,3.7,0,0,0,1.426-.505c0-.095-.543-1.3-1.206-2.668-3.872-8.013-4.866-12.834-3.485-16.905,2.225-6.561,6.047-11.42,10.582-13.453,4.469-2,9.387-2.129,22.7-.581,11.153,1.3,17,1.625,23.028,1.294,22.025-1.21,45.76-11.526,64.316-27.956l3.467-3.07,2.69,2.357c10.414,9.125,20.9,16.113,31.22,20.808a83.335,83.335,0,0,0,31.509,7.889c6.95.423,12.965.01,28.049-1.92,11.637-1.49,16.685-1.06,21.328,1.817a19.4,19.4,0,0,1,3.421,2.838,38.36,38.36,0,0,1,5.667,10.115,10.99,10.99,0,0,1,.889,5.178c-.007,3.1-.474,4.6-2.674,8.589-1.518,2.754-3.012,5.966-2.908,6.251a7.651,7.651,0,0,0,2.052.931c5.1,1.808,8.188,5.164,9.944,10.815.378,1.217,1.255,5.054,1.948,8.527s1.62,7.572,2.058,9.108c2.988,10.469,8.732,18.632,17.991,25.57a10.863,10.863,0,0,1,2.635,2.324c-.124.1-1.287.9-2.584,1.78a51.536,51.536,0,0,0-9.779,9.1,55.748,55.748,0,0,0-6.677,11.986,94.348,94.348,0,0,0-3.895,15.156c-1.5,7.693-2.147,10.07-3.381,12.418-1.737,3.307-4.136,4.633-8.382,4.633-2.116,0-2.319.042-2.143.442,3.835,8.69,5.331,15.676,4.582,21.392-.642,4.894-2.271,8.243-5.428,11.156a20.361,20.361,0,0,1-13.631,4.9c-2.928,0-6.088-.5-13.673-2.152-16.692-3.638-24.217-3.715-35.638-.364-18.6,5.456-35.925,14.413-52.951,27.368-2.123,1.615-3.944,2.936-4.048,2.936a2,2,0,0,1-.713-.528Zm5.348-13.771c17.43-14.4,32.4-22.087,47.649-24.455,7.393-1.148,14.148-1.043,24.268.379,11.427,1.605,12.7,1.745,15.913,1.746,8.308,0,13.7-2.837,18.836-9.913,1.841-2.538,2.278-3.98,2.24-7.39-.043-3.851-1.244-8.316-3.566-13.257L344.3,274.1l1.295-.436a14.107,14.107,0,0,0,8.992-8.332c1-2.522,1.5-5.037,2.274-11.4,1.254-10.28,2.7-14.817,6.307-19.8,2.493-3.442,7.927-7.655,12.708-9.853,1.394-.641,1.568-.807,1.568-1.5,0-.706-.19-.87-2.1-1.823-8.116-4.043-13.344-9.5-15.939-16.634-1.043-2.869-1.735-6.351-2.534-12.757-.4-3.2-.914-6.663-1.146-7.7-1.479-6.647-4.322-9.879-10.808-12.286-.578-.214-.564-.273.785-3.323,2.1-4.747,3.046-8.4,3.092-11.926.046-3.553-.377-4.973-2.268-7.612-3.736-5.212-8.43-8.471-13.639-9.468-3.355-.642-9.6-.358-16.918.771-8.724,1.345-12.553,1.7-18.167,1.7a62.958,62.958,0,0,1-19.086-2.729c-12.177-3.585-24.284-10.508-37.847-21.639-4.064-3.336-3.984-3.33-7.355-.494-12.993,10.933-26.212,18.556-38.379,22.133a63,63,0,0,1-19.091,2.729c-5.608.006-9.429-.351-18.167-1.7-9.417-1.449-15.478-1.48-19.529-.1a23.009,23.009,0,0,0-9.881,7.327c-3.119,3.829-3.906,6.36-3.347,10.772a44.163,44.163,0,0,0,4.354,13.109c.078.156-.563.521-1.469.836a14.11,14.11,0,0,0-8.989,8.822c-.745,1.971-1.251,4.643-1.9,10.044a73.694,73.694,0,0,1-1.683,10.361c-2.244,8.882-7.637,15.19-16.9,19.768-1.843.911-2.037,1.08-2.059,1.8-.024.748.116.863,2.389,1.954a30.512,30.512,0,0,1,14.227,13.293c2.045,4.055,3.034,8.124,4.028,16.568.652,5.538,1.147,8.164,1.927,10.231,1.679,4.444,4.23,6.877,9.339,8.908l1.151.457-1.208,2.675c-3.061,6.779-4.013,12.364-2.834,16.636.491,1.78,3.754,5.975,6.465,8.313,5.906,5.092,11.43,5.843,26.526,3.606,3.764-.558,8.132-1.151,9.707-1.317a94.839,94.839,0,0,1,14.929-.012c16.48,1.919,32.659,9.8,50.282,24.486,3.421,2.851,3.522,2.857,6.492.4Z" transform="translate(723.706 59.88)" stroke="#000" stroke-width="2"/>
    <g id="Ellipse_26" data-name="Ellipse 26" transform="translate(918.72 297.157)" fill="#7b563f" stroke="#000" stroke-width="2">
      <ellipse cx="2.972" cy="2.9" rx="2.972" ry="2.9" stroke="none"/>
      <ellipse cx="2.972" cy="2.9" rx="3.972" ry="3.9" fill="none"/>
    </g>
    <g id="Ellipse_27" data-name="Ellipse 27" transform="translate(1001.927 297.157)" fill="#7b563f" stroke="#000" stroke-width="2">
      <ellipse cx="2.972" cy="2.9" rx="2.972" ry="2.9" stroke="none"/>
      <ellipse cx="2.972" cy="2.9" rx="3.972" ry="3.9" fill="none"/>
    </g>
    <g id="Ellipse_28" data-name="Ellipse 28" transform="translate(911.291 273.953)" fill="#7b563f" stroke="#000" stroke-width="2">
      <ellipse cx="2.972" cy="2.9" rx="2.972" ry="2.9" stroke="none"/>
      <ellipse cx="2.972" cy="2.9" rx="3.972" ry="3.9" fill="none"/>
    </g>
    <g id="Ellipse_29" data-name="Ellipse 29" transform="translate(1009.356 273.953)" fill="#7b563f" stroke="#000" stroke-width="2">
      <ellipse cx="2.972" cy="2.9" rx="2.972" ry="2.9" stroke="none"/>
      <ellipse cx="2.972" cy="2.9" rx="3.972" ry="3.9" fill="none"/>
    </g>
    <g id="Ellipse_30" data-name="Ellipse 30" transform="translate(912.777 250.749)" fill="#7b563f" stroke="#000" stroke-width="2">
      <ellipse cx="2.972" cy="2.9" rx="2.972" ry="2.9" stroke="none"/>
      <ellipse cx="2.972" cy="2.9" rx="3.972" ry="3.9" fill="none"/>
    </g>
    <g id="Ellipse_31" data-name="Ellipse 31" transform="translate(1007.87 250.749)" fill="#7b563f" stroke="#000" stroke-width="2">
      <ellipse cx="2.972" cy="2.9" rx="2.972" ry="2.9" stroke="none"/>
      <ellipse cx="2.972" cy="2.9" rx="3.972" ry="3.9" fill="none"/>
    </g>
    <g id="Ellipse_32" data-name="Ellipse 32" transform="translate(929.121 231.896)" fill="#7b563f" stroke="#000" stroke-width="2">
      <ellipse cx="2.972" cy="2.9" rx="2.972" ry="2.9" stroke="none"/>
      <ellipse cx="2.972" cy="2.9" rx="3.972" ry="3.9" fill="none"/>
    </g>
    <g id="Ellipse_33" data-name="Ellipse 33" transform="translate(993.012 231.896)" fill="#7b563f" stroke="#000" stroke-width="2">
      <ellipse cx="2.972" cy="2.9" rx="2.972" ry="2.9" stroke="none"/>
      <ellipse cx="2.972" cy="2.9" rx="3.972" ry="3.9" fill="none"/>
    </g>
  </g>
</svg>
