<svg xmlns="http://www.w3.org/2000/svg" width="60" height="60" viewBox="0 0 60 60">
  <path id="home" d="M29.189,47.616,9.986,67.955V89.907a1.95,1.95,0,0,0,1.667,2.143l11.672-.039a1.954,1.954,0,0,0,1.658-2.143V77.048a1.95,1.95,0,0,1,1.667-2.143h6.666a1.95,1.95,0,0,1,1.667,2.143v12.81a2.49,2.49,0,0,0,.486,1.52,1.506,1.506,0,0,0,1.18.63l11.668.042a1.95,1.95,0,0,0,1.667-2.143V67.94l-19.2-20.325A1.059,1.059,0,0,0,29.189,47.616ZM59.523,61.44l-8.708-9.23V33.657a1.463,1.463,0,0,0-1.25-1.607H43.733a1.463,1.463,0,0,0-1.25,1.607v9.726l-9.325-9.866a4.177,4.177,0,0,0-6.354,0L.438,61.44A1.938,1.938,0,0,0,.272,63.7l2.656,4.152a1.2,1.2,0,0,0,.845.579,1.073,1.073,0,0,0,.916-.361l24.5-25.95a1.059,1.059,0,0,1,1.594,0l24.5,25.95a1.071,1.071,0,0,0,1.76-.214L59.7,63.708a1.937,1.937,0,0,0,.278-1.181,1.777,1.777,0,0,0-.455-1.086Z" transform="translate(0.015 -32.05)" fill="#7b563f"/>
</svg>
