<svg id="lignestyle1" xmlns="http://www.w3.org/2000/svg" width="693.367" height="37.923" viewBox="0 0 693.367 37.923">
  <path id="Tracé_3" data-name="Tracé 3" d="M35.762-385.344c-16.646,1.9-29.283,7.2-33.4,14.061-2.394,4-2.561,5.042-1.225,7.722,1.781,3.688,3.73,5.474,8.462,7.924a45.888,45.888,0,0,0,31.454,3.486c3.34-.864,7.516-2.708,5.01-2.219-7.571,1.5-12.025,1.844-17.536,1.354a35.546,35.546,0,0,1-13.584-3.746c-9.854-5.388-9.241-12.3,1.614-17.547,4.788-2.3,9.241-3.544,16.423-4.524,16.089-2.19,31.4-1.268,49.77,3,4.788,1.124,12.582,3.486,21.322,6.483,3.73,1.3,11.357,3.832,16.924,5.647,10.522,3.429,11.023,3.659,16.59,7.088,5.456,3.371,13.7,6.195,21.767,7.463,7.571,1.181,23.716,1.124,36.8-.115,15.477-1.469,27.39-3.515,59.512-10.2,33.124-6.886,42.644-8.442,64.133-10.459,9.575-.893,23.6-1.239,28.949-.72a105.814,105.814,0,0,1,14.586,2.507,28.267,28.267,0,0,0,4.064.864,23.044,23.044,0,0,0-3.73-1.988c-8.852-4.351-21.712-6.829-34.961-6.829-13.417.029-26.388,2.017-69.422,10.718-28.225,5.705-33.18,6.656-45.094,8.673-37.745,6.4-57.62,5.676-72.762-2.651-4.12-2.219-8.128-6.051-9.353-8.932-2-4.524,2.338-9.71,8.963-10.69a15.337,15.337,0,0,1,7.627,1.008c3.619,1.585,5.511,6.137,3.841,9.307-.779,1.441-.724,1.5.167,1.066a8.757,8.757,0,0,0,2.283-1.959c1.113-1.239,1.336-1.988,1.336-4.236,0-2.363-.223-2.968-1.447-4.351-2.895-3.2-8.406-5.129-13.472-4.754-9.13.72-16.813,7.924-14.92,14,.334,1.037.39,1.959.167,2.075s-3.674-1.441-7.627-3.458a78.707,78.707,0,0,0-14.2-5.935,217.874,217.874,0,0,0-40.083-8.846C56.527-385.978,42.5-386.122,35.762-385.344Z" transform="translate(-0.299 385.848)" fill="#7b563f"/>
  <path id="Tracé_4" data-name="Tracé 4" d="M776.691-376.519c-16.924.823-36.632,3.659-67.807,9.785-40.751,8.027-49.269,9.36-73.319,11.43-21.489,1.872-33.681,1.447-46.931-1.673-2.283-.539-4.287-.993-4.454-.993s.557.454,1.615,1.021c5.456,2.865,15.866,5.843,24.44,6.949a160.379,160.379,0,0,0,24.662.539c12.248-.822,25.219-2.893,62.741-9.984,45.539-8.622,61.182-11.118,78.775-12.593,8.072-.681,20.264-.681,25.5-.028,14.642,1.844,25.386,6.438,30.786,13.1a5.737,5.737,0,0,1,1.614,4.566c0,2.382-.167,2.723-1.949,4.538-2.617,2.638-5.456,3.659-10.021,3.659a11.153,11.153,0,0,1-5.4-.879c-3.229-1.361-4.788-3.12-5.066-5.871a6.657,6.657,0,0,1,.612-3.687c.445-.737.668-1.333.445-1.333-.779,0-3.452,2.467-4.342,3.942-2.338,4.113,2,9.445,9.019,11.118a26.1,26.1,0,0,0,10.689-.057,27.809,27.809,0,0,0,5.122-2.1c6.012-3.375,8.295-8.736,5.678-13.557a22.162,22.162,0,0,1-1.169-2.326c0-.567,2.227.312,8.017,3.2,8.74,4.368,15.087,6.523,29.283,9.927,26.444,6.382,51.44,7.6,70.814,3.489,8.8-1.9,17.592-5.9,21.266-9.7,2.06-2.127,4.231-5.928,4.231-7.317-.056-1.248-2.561-5.3-4.175-6.75-3.452-3.006-11.078-6.126-17.815-7.346a72.058,72.058,0,0,0-16.757-.255c-3.953.567-8.072,1.673-9.8,2.609l-1.28.681,2.505-.539a64.2,64.2,0,0,1,21.823-.652c6.959,1.134,13.361,4.283,16.089,7.941,1.781,2.382,1.336,5.559-1.113,8.083-5.623,5.814-19.151,9.275-38.19,9.728-18.65.425-35.629-2.439-59.29-9.984-11.747-3.744-26.388-8.253-30.619-9.445a68.067,68.067,0,0,1-7.682-2.751,63.542,63.542,0,0,0-13.083-4.4c-7.349-1.73-10.41-2.014-22.38-2.127C783.984-376.575,778.083-376.575,776.691-376.519Z" transform="translate(-278.173 379.862)" fill="#7b563f"/>
</svg>
