<svg xmlns="http://www.w3.org/2000/svg" width="60" height="60" viewBox="0 0 60 60">
  <path id="sign-in-alt" d="M48.75,122.769H38.906a1.67,1.67,0,0,1-1.406-1.837v-6.122a1.67,1.67,0,0,1,1.406-1.837H48.75c2.074,0,3.75-2.189,3.75-4.9V78.692c0-2.709-1.676-4.9-3.75-4.9H38.906A1.67,1.67,0,0,1,37.5,71.958V65.837A1.67,1.67,0,0,1,38.906,64H48.75C54.961,64,60,70.581,60,78.692v29.385C60,116.188,54.961,122.769,48.75,122.769ZM43.242,92.007,23.555,66.3c-1.758-2.3-4.8-.689-4.8,2.6V83.59H2.813C1.254,83.59,0,85.227,0,87.263v14.692c0,2.035,1.254,3.673,2.813,3.673H18.75V120.32c0,3.29,3.047,4.9,4.8,2.6L43.242,97.211A4.549,4.549,0,0,0,43.242,92.007Z" transform="translate(0 -64)" fill="#7b563f"/>
</svg>
