<svg id="titre-presentation-icon" xmlns="http://www.w3.org/2000/svg" width="420.453" height="65" viewBox="0 0 420.453 65">
  <text id="Presentation" transform="translate(245.453 52)" fill="#7b563f" font-size="62" font-family="HardWestern, Hard Western" text-decoration="underline"><tspan x="-174.98" y="0">Presentation</tspan></text>
  <path id="info-circle" d="M33,8A25,25,0,1,0,58,33,25,25,0,0,0,33,8Zm0,11.089a4.234,4.234,0,1,1-4.234,4.234A4.234,4.234,0,0,1,33,19.089Zm5.645,25.6a1.21,1.21,0,0,1-1.21,1.21H28.565a1.21,1.21,0,0,1-1.21-1.21V42.274a1.21,1.21,0,0,1,1.21-1.21h1.21V34.613h-1.21a1.21,1.21,0,0,1-1.21-1.21V30.984a1.21,1.21,0,0,1,1.21-1.21h6.452a1.21,1.21,0,0,1,1.21,1.21V41.065h1.21a1.21,1.21,0,0,1,1.21,1.21Z" transform="translate(-8 -0.5)" fill="#7b563f"/>
</svg>
