<svg xmlns="http://www.w3.org/2000/svg" width="60" height="60" viewBox="0 0 60 60">
  <path id="user-circle" d="M30,19.613A11.613,11.613,0,1,0,41.613,31.226,11.616,11.616,0,0,0,30,19.613Zm0,17.419a5.806,5.806,0,1,1,5.806-5.806A5.808,5.808,0,0,1,30,37.032ZM30,8A30,30,0,1,0,60,38,29.995,29.995,0,0,0,30,8Zm0,54.194a24.056,24.056,0,0,1-15.738-5.855,10.421,10.421,0,0,1,8.419-4.778A24.611,24.611,0,0,0,30,52.722a24.228,24.228,0,0,0,7.319-1.161,10.452,10.452,0,0,1,8.419,4.778A24.056,24.056,0,0,1,30,62.194ZM49.681,52.02a16.046,16.046,0,0,0-12.714-6.278c-1.234,0-3.145,1.161-6.968,1.161s-5.734-1.161-6.968-1.161A16.081,16.081,0,0,0,10.319,52.02,24.181,24.181,0,1,1,54.194,38,24.02,24.02,0,0,1,49.681,52.02Z" transform="translate(0 -8)" fill="#7b563f"/>
</svg>
