<svg xmlns="http://www.w3.org/2000/svg" xmlns:xlink="http://www.w3.org/1999/xlink" width="866" height="221" viewBox="0 0 866 221">
  <defs>
    <radialGradient id="radial-gradient" cx="0.5" cy="0.5" r="0.5" gradientUnits="objectBoundingBox">
      <stop offset="0" stop-color="#fff"/>
      <stop offset="0.18" stop-color="#fff" stop-opacity="0.435"/>
      <stop offset="1" stop-opacity="0.369"/>
    </radialGradient>
  </defs>
  <g id="home_svgtitle" transform="translate(-595 -237)">
    <text id="La_Ferronnerie_de_la_Baie_de_Canche" data-name="La Ferronnerie de la Baie de Canche" transform="translate(1028 322)" fill="#6a6767" stroke="#000" stroke-width="1" font-size="100" font-family="HardWestern, Hard Western"><tspan x="-332.397" y="0">La Ferronnerie </tspan><tspan x="-431.689" y="115">de la Baie de Canche</tspan></text>
    <path id="use2866" d="M633.348,93.609a3,3,0,1,1-3-2.984A2.991,2.991,0,0,1,633.348,93.609Z" transform="translate(79.853 193.424)" stroke="#000" stroke-linecap="round" stroke-linejoin="round" stroke-width="1" fill="url(#radial-gradient)"/>
    <path id="use2866-2" data-name="use2866" d="M633.348,93.609a3,3,0,1,1-3-2.984A2.991,2.991,0,0,1,633.348,93.609Z" transform="translate(91.853 221.424)" stroke="#000" stroke-linecap="round" stroke-linejoin="round" stroke-width="1" fill="url(#radial-gradient)"/>
    <path id="use2866-3" data-name="use2866" d="M633.348,93.609a3,3,0,1,1-3-2.984A2.991,2.991,0,0,1,633.348,93.609Z" transform="translate(256.853 198.424)" stroke="#000" stroke-linecap="round" stroke-linejoin="round" stroke-width="1" fill="url(#radial-gradient)"/>
    <path id="use2866-4" data-name="use2866" d="M633.348,93.609a3,3,0,1,1-3-2.984A2.991,2.991,0,0,1,633.348,93.609Z" transform="translate(151.853 199.391)" stroke="#000" stroke-linecap="round" stroke-linejoin="round" stroke-width="1" fill="url(#radial-gradient)"/>
    <path id="use2866-5" data-name="use2866" d="M633.348,93.609a3,3,0,1,1-3-2.984A2.991,2.991,0,0,1,633.348,93.609Z" transform="translate(209.853 171.424)" stroke="#000" stroke-linecap="round" stroke-linejoin="round" stroke-width="1" fill="url(#radial-gradient)"/>
    <path id="use2866-6" data-name="use2866" d="M633.348,93.609a3,3,0,1,1-3-2.984A2.991,2.991,0,0,1,633.348,93.609Z" transform="translate(299.853 198.424)" stroke="#000" stroke-linecap="round" stroke-linejoin="round" stroke-width="1" fill="url(#radial-gradient)"/>
    <path id="use2866-7" data-name="use2866" d="M633.348,93.609a3,3,0,1,1-3-2.984A2.991,2.991,0,0,1,633.348,93.609Z" transform="translate(350.853 198.424)" stroke="#000" stroke-linecap="round" stroke-linejoin="round" stroke-width="1" fill="url(#radial-gradient)"/>
    <path id="use2866-8" data-name="use2866" d="M633.348,93.609a3,3,0,1,1-3-2.984A2.991,2.991,0,0,1,633.348,93.609Z" transform="translate(399.853 199.391)" stroke="#000" stroke-linecap="round" stroke-linejoin="round" stroke-width="1" fill="url(#radial-gradient)"/>
    <path id="use2866-9" data-name="use2866" d="M633.348,93.609a3,3,0,1,1-3-2.984A2.991,2.991,0,0,1,633.348,93.609Z" transform="translate(433.853 199.391)" stroke="#000" stroke-linecap="round" stroke-linejoin="round" stroke-width="1" fill="url(#radial-gradient)"/>
    <path id="use2866-10" data-name="use2866" d="M633.348,93.609a3,3,0,1,1-3-2.984A2.991,2.991,0,0,1,633.348,93.609Z" transform="translate(209.853 215.424)" stroke="#000" stroke-linecap="round" stroke-linejoin="round" stroke-width="1" fill="url(#radial-gradient)"/>
    <path id="use2866-11" data-name="use2866" d="M633.348,93.609a3,3,0,1,1-3-2.984A2.991,2.991,0,0,1,633.348,93.609Z" transform="translate(468.853 199.391)" stroke="#000" stroke-linecap="round" stroke-linejoin="round" stroke-width="1" fill="url(#radial-gradient)"/>
    <path id="use2866-12" data-name="use2866" d="M633.348,93.609a3,3,0,1,1-3-2.984A2.991,2.991,0,0,1,633.348,93.609Z" transform="translate(518.853 199.391)" stroke="#000" stroke-linecap="round" stroke-linejoin="round" stroke-width="1" fill="url(#radial-gradient)"/>
    <path id="use2866-13" data-name="use2866" d="M633.348,93.609a3,3,0,1,1-3-2.984A2.991,2.991,0,0,1,633.348,93.609Z" transform="translate(556.853 199.391)" stroke="#000" stroke-linecap="round" stroke-linejoin="round" stroke-width="1" fill="url(#radial-gradient)"/>
    <path id="use2866-14" data-name="use2866" d="M633.348,93.609a3,3,0,1,1-3-2.984A2.991,2.991,0,0,1,633.348,93.609Z" transform="translate(599.853 199.391)" stroke="#000" stroke-linecap="round" stroke-linejoin="round" stroke-width="1" fill="url(#radial-gradient)"/>
    <path id="use2866-15" data-name="use2866" d="M633.348,93.609a3,3,0,1,1-3-2.984A2.991,2.991,0,0,1,633.348,93.609Z" transform="translate(650.853 199.391)" stroke="#000" stroke-linecap="round" stroke-linejoin="round" stroke-width="1" fill="url(#radial-gradient)"/>
    <path id="use2866-16" data-name="use2866" d="M633.348,93.609a3,3,0,1,1-3-2.984A2.991,2.991,0,0,1,633.348,93.609Z" transform="translate(674.853 199.391)" stroke="#000" stroke-linecap="round" stroke-linejoin="round" stroke-width="1" fill="url(#radial-gradient)"/>
    <path id="use2866-17" data-name="use2866" d="M633.348,93.609a3,3,0,1,1-3-2.984A2.991,2.991,0,0,1,633.348,93.609Z" transform="translate(6.853 313.391)" stroke="#000" stroke-linecap="round" stroke-linejoin="round" stroke-width="1" fill="url(#radial-gradient)"/>
    <path id="use2866-18" data-name="use2866" d="M633.348,93.609a3,3,0,1,1-3-2.984A2.991,2.991,0,0,1,633.348,93.609Z" transform="translate(28.853 313.391)" stroke="#000" stroke-linecap="round" stroke-linejoin="round" stroke-width="1" fill="url(#radial-gradient)"/>
    <path id="use2866-19" data-name="use2866" d="M633.348,93.609a3,3,0,1,1-3-2.984A2.991,2.991,0,0,1,633.348,93.609Z" transform="translate(96.853 313.391)" stroke="#000" stroke-linecap="round" stroke-linejoin="round" stroke-width="1" fill="url(#radial-gradient)"/>
    <path id="use2866-20" data-name="use2866" d="M633.348,93.609a3,3,0,1,1-3-2.984A2.991,2.991,0,0,1,633.348,93.609Z" transform="translate(163.853 315.391)" stroke="#000" stroke-linecap="round" stroke-linejoin="round" stroke-width="1" fill="url(#radial-gradient)"/>
    <path id="use2866-21" data-name="use2866" d="M633.348,93.609a3,3,0,1,1-3-2.984A2.991,2.991,0,0,1,633.348,93.609Z" transform="translate(249.853 293.391)" stroke="#000" stroke-linecap="round" stroke-linejoin="round" stroke-width="1" fill="url(#radial-gradient)"/>
    <path id="use2866-22" data-name="use2866" d="M633.348,93.609a3,3,0,1,1-3-2.984A2.991,2.991,0,0,1,633.348,93.609Z" transform="translate(296.854 315.391)" stroke="#000" stroke-linecap="round" stroke-linejoin="round" stroke-width="1" fill="url(#radial-gradient)"/>
    <path id="use2866-23" data-name="use2866" d="M633.348,93.609a3,3,0,1,1-3-2.984A2.991,2.991,0,0,1,633.348,93.609Z" transform="translate(327.853 314.359)" stroke="#000" stroke-linecap="round" stroke-linejoin="round" stroke-width="1" fill="url(#radial-gradient)"/>
    <path id="use2866-24" data-name="use2866" d="M633.348,93.609a3,3,0,1,1-3-2.984A2.991,2.991,0,0,1,633.348,93.609Z" transform="translate(351.853 314.359)" stroke="#000" stroke-linecap="round" stroke-linejoin="round" stroke-width="1" fill="url(#radial-gradient)"/>
    <path id="use2866-25" data-name="use2866" d="M633.348,93.609a3,3,0,1,1-3-2.984A2.991,2.991,0,0,1,633.348,93.609Z" transform="translate(418.853 314.359)" stroke="#000" stroke-linecap="round" stroke-linejoin="round" stroke-width="1" fill="url(#radial-gradient)"/>
    <path id="use2866-26" data-name="use2866" d="M633.348,93.609a3,3,0,1,1-3-2.984A2.991,2.991,0,0,1,633.348,93.609Z" transform="translate(469.853 314.359)" stroke="#000" stroke-linecap="round" stroke-linejoin="round" stroke-width="1" fill="url(#radial-gradient)"/>
    <path id="use2866-27" data-name="use2866" d="M633.348,93.609a3,3,0,1,1-3-2.984A2.991,2.991,0,0,1,633.348,93.609Z" transform="translate(536.853 308.391)" stroke="#000" stroke-linecap="round" stroke-linejoin="round" stroke-width="1" fill="url(#radial-gradient)"/>
    <path id="use2866-28" data-name="use2866" d="M633.348,93.609a3,3,0,1,1-3-2.984A2.991,2.991,0,0,1,633.348,93.609Z" transform="translate(618.853 315.391)" stroke="#000" stroke-linecap="round" stroke-linejoin="round" stroke-width="1" fill="url(#radial-gradient)"/>
    <path id="use2866-29" data-name="use2866" d="M633.348,93.609a3,3,0,1,1-3-2.984A2.991,2.991,0,0,1,633.348,93.609Z" transform="translate(660.853 314.359)" stroke="#000" stroke-linecap="round" stroke-linejoin="round" stroke-width="1" fill="url(#radial-gradient)"/>
    <path id="use2866-30" data-name="use2866" d="M633.348,93.609a3,3,0,1,1-3-2.984A2.991,2.991,0,0,1,633.348,93.609Z" transform="translate(696.853 314.359)" stroke="#000" stroke-linecap="round" stroke-linejoin="round" stroke-width="1" fill="url(#radial-gradient)"/>
    <path id="use2866-31" data-name="use2866" d="M633.348,93.609a3,3,0,1,1-3-2.984A2.991,2.991,0,0,1,633.348,93.609Z" transform="translate(746.853 314.359)" stroke="#000" stroke-linecap="round" stroke-linejoin="round" stroke-width="1" fill="url(#radial-gradient)"/>
    <path id="use2866-32" data-name="use2866" d="M633.348,93.609a3,3,0,1,1-3-2.984A2.991,2.991,0,0,1,633.348,93.609Z" transform="translate(775.853 314.359)" stroke="#000" stroke-linecap="round" stroke-linejoin="round" stroke-width="1" fill="url(#radial-gradient)"/>
    <path id="use2866-33" data-name="use2866" d="M633.348,93.609a3,3,0,1,1-3-2.984A2.991,2.991,0,0,1,633.348,93.609Z" transform="translate(798.853 314.359)" stroke="#000" stroke-linecap="round" stroke-linejoin="round" stroke-width="1" fill="url(#radial-gradient)"/>
    <path id="use2866-34" data-name="use2866" d="M633.348,93.609a3,3,0,1,1-3-2.984A2.991,2.991,0,0,1,633.348,93.609Z" transform="translate(326.853 188.359)" stroke="#000" stroke-linecap="round" stroke-linejoin="round" stroke-width="1" fill="url(#radial-gradient)"/>
    <path id="use2866-35" data-name="use2866" d="M633.348,93.609a3,3,0,1,1-3-2.984A2.991,2.991,0,0,1,633.348,93.609Z" transform="translate(377.853 188.359)" stroke="#000" stroke-linecap="round" stroke-linejoin="round" stroke-width="1" fill="url(#radial-gradient)"/>
    <path id="use2866-36" data-name="use2866" d="M633.348,93.609a3,3,0,1,1-3-2.984A2.991,2.991,0,0,1,633.348,93.609Z" transform="translate(625.853 187.359)" stroke="#000" stroke-linecap="round" stroke-linejoin="round" stroke-width="1" fill="url(#radial-gradient)"/>
    <path id="use2866-37" data-name="use2866" d="M633.348,93.609a3,3,0,1,1-3-2.984A2.991,2.991,0,0,1,633.348,93.609Z" transform="translate(447.853 314.359)" stroke="#000" stroke-linecap="round" stroke-linejoin="round" stroke-width="1" fill="url(#radial-gradient)"/>
    <path id="use2866-38" data-name="use2866" d="M633.348,93.609a3,3,0,1,1-3-2.984A2.991,2.991,0,0,1,633.348,93.609Z" transform="translate(249.853 323.359)" stroke="#000" stroke-linecap="round" stroke-linejoin="round" stroke-width="1" fill="url(#radial-gradient)"/>
    <path id="use2866-39" data-name="use2866" d="M633.348,93.609a3,3,0,1,1-3-2.984A2.991,2.991,0,0,1,633.348,93.609Z" transform="translate(219.853 308.391)" stroke="#000" stroke-linecap="round" stroke-linejoin="round" stroke-width="1" fill="url(#radial-gradient)"/>
    <path id="use2866-40" data-name="use2866" d="M633.348,93.609a3,3,0,1,1-3-2.984A2.991,2.991,0,0,1,633.348,93.609Z" transform="translate(-21.147 314.359)" stroke="#000" stroke-linecap="round" stroke-linejoin="round" stroke-width="1" fill="url(#radial-gradient)"/>
  </g>
</svg>
