<svg xmlns="http://www.w3.org/2000/svg" width="180" height="180" viewBox="0 0 180 180">
  <g id="Groupe_26" data-name="Groupe 26" transform="translate(-1081.849 -816.169)">
    <path id="handshake" d="M66.194,64H53.114a4.58,4.58,0,0,0-3.289,1.442L34.856,80.9c-.015.017-.03.052-.046.069a7.461,7.461,0,0,0-.32,9.616,5.837,5.837,0,0,0,8.543.464c.015-.017.046-.017.061-.034L55.261,78.441a2.257,2.257,0,0,1,3.441.172,3,3,0,0,1-.152,3.881l-3.974,4.1,22.171,20.3a11.723,11.723,0,0,1,1.2,1.322V74.99l-8.314-9.376A4.58,4.58,0,0,0,66.194,64ZM82.838,75.024v38.447c0,3.039,2.178,5.495,4.873,5.495h9.746V75.024Zm7.309,38.447a2.767,2.767,0,1,1,2.436-2.747A2.614,2.614,0,0,1,90.147,113.471ZM0,118.948H9.746c2.7,0,4.873-2.456,4.873-5.495V75.024H0Zm7.309-10.973a2.767,2.767,0,0,1,0,5.495,2.767,2.767,0,0,1,0-5.495Zm66.377,3.194L50.951,90.358,46.383,95.08A10.128,10.128,0,0,1,30.9,94.325a13.506,13.506,0,0,1,.67-17.463L44.023,64H31.262a4.6,4.6,0,0,0-3.441,1.614L19.491,74.99v38.447h2.787L36.059,127.5c4.172,3.829,10.309,3.108,13.7-1.6l.03-.034,2.726,2.662a5.235,5.235,0,0,0,7.964-.927l4.781-6.628.822.756a4.5,4.5,0,0,0,6.852-.807l1.447-2.009a6,6,0,0,0-.7-7.744Z" transform="translate(1123.12 809.188)" fill="#7b563f" stroke="#000" stroke-width="2"/>
    <path id="circle" d="M98,8a90,90,0,1,0,90,90A89.985,89.985,0,0,0,98,8Zm0,162.581A72.581,72.581,0,1,1,170.581,98,72.561,72.561,0,0,1,98,170.581Z" transform="translate(1073.849 808.169)" fill="#7b563f"/>
  </g>
</svg>
