<svg xmlns="http://www.w3.org/2000/svg" width="180" height="180" viewBox="0 0 180 180">
  <g id="Groupe_25" data-name="Groupe 25" transform="translate(-870 -816.169)">
    <path id="circle" d="M98,8a90,90,0,1,0,90,90A89.985,89.985,0,0,0,98,8Zm0,162.581A72.581,72.581,0,1,1,170.581,98,72.561,72.561,0,0,1,98,170.581Z" transform="translate(862 808.169)" fill="#7b563f"/>
    <path id="store-alt" d="M44.085,57.593H17.66v-24H8.852v38.4a4.61,4.61,0,0,0,4.4,4.8H48.489a4.61,4.61,0,0,0,4.4-4.8V33.6H44.085Zm43.3-36.266L75.643,2.13A4.341,4.341,0,0,0,71.968,0H16.2a4.3,4.3,0,0,0-3.661,2.13L.8,21.327C-1.153,24.522.939,28.8,4.462,28.8H83.721C87.231,28.8,89.323,24.522,87.382,21.327ZM70.509,74.391a2.314,2.314,0,0,0,2.2,2.4h4.4a2.314,2.314,0,0,0,2.2-2.4V33.6H70.509Z" transform="translate(915.912 867.773)" fill="#7b563f" stroke="#000" stroke-width="2"/>
  </g>
</svg>
